# Blender 4.0.1
# www.blender.org
o tree_oak_2
v 2.521941 -0.000000 4.431575
v -2.502952 0.000000 -4.271797
v 2.521941 10.049787 4.431576
v -2.502953 10.049787 -4.271797
v 5.129433 0.000000 -0.000000
v -4.920354 -0.000000 0.000000
v 5.024893 10.049787 0.000000
v -5.024893 10.049787 0.000001
v 2.512446 0.000000 -4.351686
v -2.512446 -0.000000 4.351686
v 2.512446 10.049787 -4.351686
v -2.512446 10.049787 4.351686
vn 0.8660 -0.0000 -0.5000
vn -0.0000 -0.0000 -1.0000
vn -0.8660 -0.0000 -0.5000
vt 1.000000 0.000000
vt 0.000000 1.000000
vt 0.000000 0.000000
vt 1.000000 1.000000
s 1
f 2/1/1 3/2/1 1/3/1
f 6/1/2 7/2/2 5/3/2
f 10/1/3 11/2/3 9/3/3
f 2/1/1 4/4/1 3/2/1
f 6/1/2 8/4/2 7/2/2
f 10/1/3 12/4/3 11/2/3
