# Blender v2.81 (sub 16) OBJ File: 'pinetree.blend'
# www.blender.org
mtllib tris.mtl
o Cube
v 2.542288 11.380466 2.718146
v -2.542288 11.380466 2.718146
v 2.542288 1.368237 0.564020
v -2.542288 1.368237 0.564020
v -2.542288 11.380466 -2.677595
v 2.542288 11.380466 -2.677595
v -2.542288 1.368237 -0.643779
v 2.542288 1.368237 -0.643780
v -2.697870 11.380466 2.562563
v -2.697870 11.380466 -2.522013
v -0.527643 1.368237 2.562563
v -0.527643 1.368237 -2.522013
v 2.697870 11.380466 -2.522013
v 2.697870 11.380466 2.562563
v 0.518305 1.368237 -2.522012
v 0.518306 1.368237 2.562563
v 0.000000 -0.148193 -0.882524
v 0.000000 4.505146 -0.568591
v 0.831502 -0.148193 -0.278403
v 0.532933 4.505146 -0.181392
v 0.513897 -0.148193 0.699086
v 0.329371 4.505146 0.445109
v -0.513896 -0.148193 0.699086
v -0.329371 4.505146 0.445109
v -0.831502 -0.148193 -0.278403
v -0.532933 4.505146 -0.181392
v 0.390095 26.784731 -0.134981
v 0.000001 26.784731 -0.418401
v 0.241092 26.784731 0.323603
v -0.241091 26.784731 0.323603
v -0.390094 26.784731 -0.134981
v 4.008129 15.605785 1.247262
v -0.987029 15.605785 4.094139
v 2.869386 4.284304 -0.750787
v -2.125772 4.284304 2.096091
v -4.008129 15.605785 -1.206711
v 0.987028 15.605785 -4.053589
v -2.869386 4.284304 0.791338
v 2.125772 4.284304 -2.055541
v -1.226986 15.605785 4.028404
v -4.073864 15.605785 -0.966754
v 0.771062 4.284304 2.889662
v -2.075815 4.284304 -2.105496
v 1.226986 15.605785 -3.987854
v 4.073864 15.605785 1.007304
v -0.771062 4.284304 -2.849111
v 2.075815 4.284304 2.146047
v 0.592112 21.210068 4.217746
v -4.154948 21.210068 0.860375
v 1.935051 9.760836 2.318936
v -2.812009 9.760836 -1.038436
v -0.592113 21.210068 -4.177196
v 4.154948 21.210068 -0.819825
v -1.935051 9.760836 -2.278385
v 2.812010 9.760836 1.078986
v -4.197471 21.210068 0.612388
v -0.840099 21.210068 -4.134673
v -2.298661 9.760836 1.955327
v 1.058711 9.760836 -2.791734
v 4.197471 21.210068 -0.571838
v 0.840099 21.210068 4.175223
v 2.298660 9.760836 -1.914776
v -1.058711 9.760836 2.832284
v -1.643225 25.956717 3.584961
v -3.655897 25.956717 -1.408567
v 0.354172 15.355114 2.779898
v -1.658500 15.355114 -2.213630
v 1.643225 25.956717 -3.544411
v 3.655897 25.956717 1.449118
v -0.354172 15.355114 -2.739347
v 1.658500 15.355114 2.254181
v -3.564686 25.956717 -1.622950
v 1.428843 25.956717 -3.635622
v -2.759623 15.355114 0.374448
v 2.233906 15.355114 -1.638224
v 3.564686 25.956717 1.663500
v -1.428843 25.956717 3.676172
v 2.759623 15.355114 -0.333897
v -2.233906 15.355114 1.678776
v -3.566020 30.498741 0.783362
v -0.973310 30.498741 -3.494191
v -1.855012 20.649193 1.820439
v 0.737699 20.649193 -2.457114
v 3.566020 30.498741 -0.742812
v 0.973310 30.498741 3.534741
v 1.855011 20.649193 -1.779889
v -0.737699 20.649193 2.497665
v -0.763087 30.498741 -3.545745
v 3.514467 30.498741 -0.953034
v -1.800164 20.649193 -1.834736
v 2.477389 20.649193 0.757975
v 0.763087 30.498741 3.586296
v -3.514466 30.498741 0.993585
v 1.800164 20.649193 1.875287
v -2.477390 20.649193 -0.717424
v -2.820878 34.334854 -1.826759
v 1.676422 34.334854 -2.905216
v -2.389499 25.227989 -0.027852
v 2.107801 25.227989 -1.106309
v 2.820878 34.334854 1.867310
v -1.676422 34.334854 2.945766
v 2.389498 25.227989 0.068402
v -2.107802 25.227989 1.146860
v 1.847034 34.334854 -2.800603
v 2.925492 34.334854 1.696698
v 0.048127 25.227989 -2.369223
v 1.126584 25.227989 2.128077
v -1.847034 34.334854 2.841154
v -2.925491 34.334854 -1.656147
v -0.048127 25.227989 2.409774
v -1.126585 25.227989 -2.087527
v -0.695965 37.580154 -2.737570
v 2.711697 37.580154 -0.838083
v -1.455755 29.897945 -1.374515
v 1.951907 29.897945 0.524972
v 0.695965 37.580154 2.778121
v -2.711697 37.580154 0.878633
v 1.455754 29.897945 1.415066
v -1.951908 29.897945 -0.484421
v 2.757846 37.580154 -0.675690
v 0.858358 37.580154 2.731973
v 1.394790 29.897945 -1.435479
v -0.504697 29.897945 1.972183
v -2.757845 37.580154 0.716240
v -0.858358 37.580154 -2.691422
v -1.394790 29.897945 1.476030
v 0.504697 29.897945 -1.931633
v 1.150532 39.948616 -1.978887
v 2.063900 39.948616 1.050173
v -0.061084 33.718719 -1.613542
v 0.852285 33.718719 1.415517
v -1.150532 39.948616 2.019437
v -2.063900 39.948616 -1.009622
v 0.061083 33.718719 1.654092
v -0.852285 33.718719 -1.374967
v 1.999162 39.948616 1.170807
v -1.029898 39.948616 2.084175
v 1.633817 33.718719 -0.040808
v -1.395242 33.718719 0.872560
v -1.999162 39.948616 -1.130256
v 1.029897 39.948616 -2.043624
v -1.633817 33.718719 0.081359
v 1.395242 33.718719 -0.832010
v 1.467980 42.058182 -0.945053
v 1.050721 42.058182 1.428398
v 0.518607 37.312859 -1.111956
v 0.101347 37.312859 1.261496
v -1.467981 42.058182 0.985603
v -1.050721 42.058182 -1.387847
v -0.518607 37.312859 1.152506
v -0.101348 37.312859 -1.220945
v 0.965328 42.058182 1.488256
v -1.408123 42.058182 1.070996
v 1.132231 37.312859 0.538882
v -1.241220 37.312859 0.121622
v -0.965328 42.058182 -1.447705
v 1.408123 42.058182 -1.030445
v -1.132231 37.312859 -0.498331
v 1.241221 37.312859 -0.081072
v 1.325574 43.803482 0.343640
v -0.244151 43.803482 1.362699
v 0.917953 40.118240 -0.284245
v -0.651771 40.118240 0.734813
v -1.325574 43.803482 -0.303090
v 0.244150 43.803482 -1.322148
v -0.917953 40.118240 0.324796
v 0.651771 40.118240 -0.694263
v -0.323365 43.803482 1.345849
v -1.342423 43.803482 -0.223876
v 0.304520 40.118240 0.938228
v -0.714538 40.118240 -0.631496
v 0.323364 43.803482 -1.305298
v 1.342423 43.803482 0.264426
v -0.304521 40.118240 -0.897678
v 0.714538 40.118240 0.672047
v 0.000001 40.481506 -0.008231
vt 0.434123 0.200012
vt 0.888794 0.200012
vt 0.888794 0.882019
vt 0.434123 0.882019
vt 0.434123 0.200012
vt 0.888794 0.200012
vt 0.888794 0.882019
vt 0.434123 0.882019
vt 0.434123 0.200012
vt 0.888794 0.200012
vt 0.888794 0.882019
vt 0.434123 0.882019
vt 0.434123 0.200012
vt 0.888794 0.200012
vt 0.888794 0.882019
vt 0.434123 0.882019
vt 0.158854 0.045924
vt 0.158854 0.148898
vt 0.174579 0.148898
vt 0.183388 0.045924
vt 0.166826 0.045924
vt 0.163963 0.148898
vt 0.145478 0.148898
vt 0.137984 0.045924
vt 0.174017 0.045924
vt 0.168572 0.148898
vt 0.149136 0.148898
vt 0.143691 0.045924
vt 0.162594 0.641925
vt 0.149063 0.641925
vt 0.137984 0.045924
vt 0.145478 0.148898
vt 0.163963 0.148898
vt 0.166826 0.045924
vt 0.134320 0.045924
vt 0.143130 0.148898
vt 0.147344 0.641925
vt 0.158854 0.641925
vt 0.170364 0.641925
vt 0.165968 0.641925
vt 0.151741 0.641925
vt 0.149063 0.641925
vt 0.162594 0.641925
vt 0.434123 0.200012
vt 0.888794 0.200012
vt 0.888794 0.882019
vt 0.434123 0.882019
vt 0.434123 0.200012
vt 0.888794 0.200012
vt 0.888794 0.882019
vt 0.434123 0.882019
vt 0.434123 0.200012
vt 0.888794 0.200012
vt 0.888794 0.882019
vt 0.434123 0.882019
vt 0.434123 0.200012
vt 0.888794 0.200012
vt 0.888794 0.882019
vt 0.434123 0.882019
vt 0.434123 0.200012
vt 0.888794 0.200012
vt 0.888794 0.882019
vt 0.434123 0.882019
vt 0.434123 0.200012
vt 0.888794 0.200012
vt 0.888794 0.882019
vt 0.434123 0.882019
vt 0.434123 0.200012
vt 0.888794 0.200012
vt 0.888794 0.882019
vt 0.434123 0.882019
vt 0.434123 0.200012
vt 0.888794 0.200012
vt 0.888794 0.882019
vt 0.434123 0.882019
vt 0.434123 0.200012
vt 0.888794 0.200012
vt 0.888794 0.882019
vt 0.434123 0.882019
vt 0.434123 0.200012
vt 0.888794 0.200012
vt 0.888794 0.882019
vt 0.434123 0.882019
vt 0.434123 0.200012
vt 0.888794 0.200012
vt 0.888794 0.882019
vt 0.434123 0.882019
vt 0.434123 0.200012
vt 0.888794 0.200012
vt 0.888794 0.882019
vt 0.434123 0.882019
vt 0.434123 0.200012
vt 0.888794 0.200012
vt 0.888794 0.882019
vt 0.434123 0.882019
vt 0.434123 0.200012
vt 0.888794 0.200012
vt 0.888794 0.882019
vt 0.434123 0.882019
vt 0.434123 0.200012
vt 0.888794 0.200012
vt 0.888794 0.882019
vt 0.434123 0.882019
vt 0.434123 0.200012
vt 0.888794 0.200012
vt 0.888794 0.882019
vt 0.434123 0.882019
vt 0.434123 0.200012
vt 0.888794 0.200012
vt 0.888794 0.882019
vt 0.434123 0.882019
vt 0.434123 0.200012
vt 0.888794 0.200012
vt 0.888794 0.882019
vt 0.434123 0.882019
vt 0.434123 0.200012
vt 0.888794 0.200012
vt 0.888794 0.882019
vt 0.434123 0.882019
vt 0.434123 0.200012
vt 0.888794 0.200012
vt 0.888794 0.882019
vt 0.434123 0.882019
vt 0.434123 0.200012
vt 0.888794 0.200012
vt 0.888794 0.882019
vt 0.434123 0.882019
vt 0.434123 0.200012
vt 0.888794 0.200012
vt 0.888794 0.882019
vt 0.434123 0.882019
vt 0.434123 0.200012
vt 0.888794 0.200012
vt 0.888794 0.882019
vt 0.434123 0.882019
vt 0.434123 0.200012
vt 0.888794 0.200012
vt 0.888794 0.882019
vt 0.434123 0.882019
vt 0.434123 0.200012
vt 0.888794 0.200012
vt 0.888794 0.882019
vt 0.434123 0.882019
vt 0.434123 0.200012
vt 0.888794 0.200012
vt 0.888794 0.882019
vt 0.434123 0.882019
vt 0.434123 0.200012
vt 0.888794 0.200012
vt 0.888794 0.882019
vt 0.434123 0.882019
vt 0.434123 0.200012
vt 0.888794 0.200012
vt 0.888794 0.882019
vt 0.434123 0.882019
vt 0.434123 0.200012
vt 0.888794 0.200012
vt 0.888794 0.882019
vt 0.434123 0.882019
vt 0.434123 0.200012
vt 0.888794 0.200012
vt 0.888794 0.882019
vt 0.434123 0.882019
vt 0.434123 0.200012
vt 0.888794 0.200012
vt 0.888794 0.882019
vt 0.434123 0.882019
vt 0.434123 0.200012
vt 0.888794 0.200012
vt 0.888794 0.882019
vt 0.434123 0.882019
vt 0.434123 0.200012
vt 0.888794 0.200012
vt 0.888794 0.882019
vt 0.434123 0.882019
vt 0.434123 0.200012
vt 0.888794 0.200012
vt 0.888794 0.882019
vt 0.434123 0.882019
vt 0.434123 0.200012
vt 0.888794 0.200012
vt 0.888794 0.882019
vt 0.434123 0.882019
vt 0.434123 0.200012
vt 0.888794 0.200012
vt 0.888794 0.882019
vt 0.434123 0.882019
vt 0.158854 0.945023
vn 0.0000 -0.2103 0.9776
vn 0.0000 -0.1990 -0.9800
vn -0.9773 -0.2118 0.0000
vn 0.9771 -0.2127 0.0000
vn 0.0000 0.0673 -0.9977
vn 0.0000 0.0374 -0.9993
vn 0.9504 0.0374 -0.3088
vn 0.9489 0.0673 -0.3083
vn 0.5874 0.0374 0.8084
vn 0.5864 0.0673 0.8072
vn -0.5874 0.0374 0.8084
vn -0.5864 0.0673 0.8072
vn 0.9509 0.0183 -0.3089
vn 0.5877 0.0183 0.8089
vn -0.9504 0.0374 -0.3088
vn -0.9489 0.0673 -0.3083
vn -0.9509 0.0183 -0.3089
vn 0.0000 0.0183 -0.9998
vn -0.5877 0.0183 0.8089
vn 0.4852 -0.1990 0.8514
vn -0.4852 -0.1990 -0.8514
vn -0.8514 -0.1990 0.4852
vn 0.8514 -0.1990 -0.4852
vn -0.5658 -0.1990 0.8001
vn 0.5658 -0.1990 -0.8001
vn -0.8001 -0.1990 -0.5658
vn 0.8001 -0.1990 0.5658
vn -0.9089 -0.1990 0.3663
vn 0.9089 -0.1990 -0.3663
vn -0.3663 -0.1990 -0.9089
vn 0.3663 -0.1990 0.9089
vn -0.8380 -0.1990 -0.5080
vn 0.8380 -0.1990 0.5080
vn 0.5080 -0.1990 -0.8380
vn -0.5080 -0.1990 0.8380
vn -0.2285 -0.1990 -0.9529
vn 0.2285 -0.1990 0.9529
vn 0.9529 -0.1990 -0.2285
vn -0.9529 -0.1990 0.2285
vn 0.4771 -0.1990 -0.8560
vn -0.4771 -0.1990 0.8560
vn 0.8560 -0.1990 0.4771
vn -0.8560 -0.1990 -0.4771
vn 0.9382 -0.1990 -0.2829
vn -0.9382 -0.1990 0.2829
vn 0.2829 -0.1990 0.9382
vn -0.2829 -0.1990 -0.9382
vn 0.9652 -0.1990 0.1697
vn -0.9652 -0.1990 -0.1697
vn -0.1697 -0.1990 0.9652
vn 0.1697 -0.1990 -0.9652
vn 0.5336 -0.1990 0.8220
vn -0.5336 -0.1990 -0.8220
vn -0.8220 -0.1990 0.5336
vn 0.8220 -0.1990 -0.5336
vn 0.0000 1.0000 -0.0004
g Cube_Cube_Material
usemtl Material
s 1
f 4/1/1 3/2/1 1/3/1 2/4/1
f 8/5/2 7/6/2 5/7/2 6/8/2
f 12/9/3 11/10/3 9/11/3 10/12/3
f 16/13/4 15/14/4 13/15/4 14/16/4
f 17/17/5 18/18/6 20/19/7 19/20/8
f 19/21/8 20/22/7 22/23/9 21/24/10
f 21/25/10 22/26/9 24/27/11 23/28/12
f 22/23/9 20/22/7 27/29/13 29/30/14
f 23/31/12 24/32/11 26/33/15 25/34/16
f 25/35/16 26/36/15 18/18/6 17/17/5
f 18/18/6 26/36/15 31/37/17 28/38/18
f 20/19/7 18/18/6 28/38/18 27/39/13
f 24/27/11 22/26/9 29/40/14 30/41/19
f 26/33/15 24/32/11 30/42/19 31/43/17
f 35/44/20 34/45/20 32/46/20 33/47/20
f 39/48/21 38/49/21 36/50/21 37/51/21
f 43/52/22 42/53/22 40/54/22 41/55/22
f 47/56/23 46/57/23 44/58/23 45/59/23
f 51/60/24 50/61/24 48/62/24 49/63/24
f 55/64/25 54/65/25 52/66/25 53/67/25
f 59/68/26 58/69/26 56/70/26 57/71/26
f 63/72/27 62/73/27 60/74/27 61/75/27
f 67/76/28 66/77/28 64/78/28 65/79/28
f 71/80/29 70/81/29 68/82/29 69/83/29
f 75/84/30 74/85/30 72/86/30 73/87/30
f 79/88/31 78/89/31 76/90/31 77/91/31
f 83/92/32 82/93/32 80/94/32 81/95/32
f 87/96/33 86/97/33 84/98/33 85/99/33
f 91/100/34 90/101/34 88/102/34 89/103/34
f 95/104/35 94/105/35 92/106/35 93/107/35
f 99/108/36 98/109/36 96/110/36 97/111/36
f 103/112/37 102/113/37 100/114/37 101/115/37
f 107/116/38 106/117/38 104/118/38 105/119/38
f 111/120/39 110/121/39 108/122/39 109/123/39
f 115/124/40 114/125/40 112/126/40 113/127/40
f 119/128/41 118/129/41 116/130/41 117/131/41
f 123/132/42 122/133/42 120/134/42 121/135/42
f 127/136/43 126/137/43 124/138/43 125/139/43
f 131/140/44 130/141/44 128/142/44 129/143/44
f 135/144/45 134/145/45 132/146/45 133/147/45
f 139/148/46 138/149/46 136/150/46 137/151/46
f 143/152/47 142/153/47 140/154/47 141/155/47
f 147/156/48 146/157/48 144/158/48 145/159/48
f 151/160/49 150/161/49 148/162/49 149/163/49
f 155/164/50 154/165/50 152/166/50 153/167/50
f 159/168/51 158/169/51 156/170/51 157/171/51
f 163/172/52 162/173/52 160/174/52 161/175/52
f 167/176/53 166/177/53 164/178/53 165/179/53
f 171/180/54 170/181/54 168/182/54 169/183/54
f 175/184/55 174/185/55 172/186/55 173/187/55
f 28/38/18 31/37/17 176/188/56
f 30/41/19 29/40/14 176/188/56
f 27/39/13 28/38/18 176/188/56
f 31/43/17 30/42/19 176/188/56
f 29/30/14 27/29/13 176/188/56
