# Blender v2.81 (sub 16) OBJ File: 'plant4.blend'
# www.blender.org
mtllib tris.mtl
o Cube
v 0.013741 -0.098624 -0.084846
v 0.104081 -0.102945 0.076708
v -0.076598 -0.103462 0.069813
v -0.002426 0.949818 -0.004048
v -0.028607 0.579538 -0.936374
v 0.011550 0.708920 -0.673038
v -0.002028 0.525731 0.013189
v 0.029373 0.743112 -0.426992
v 0.351119 0.753950 -0.453071
v -0.255808 0.891842 -0.428269
v 0.285013 0.730727 -0.697143
v -0.225348 0.846681 -0.676288
v -0.193247 0.806700 -0.203873
v 0.275569 0.700186 -0.223031
v 0.022878 0.673659 -0.199774
v -0.712062 0.447021 0.468013
v -0.498708 0.504880 0.330035
v -0.037683 0.200693 0.037324
v -0.315183 0.483138 0.212254
v -0.459019 0.552971 -0.022712
v -0.162506 0.558809 0.438232
v -0.618955 0.575176 0.131739
v -0.369620 0.580086 0.519344
v -0.045198 0.449733 0.289996
v -0.274236 0.445223 -0.066056
v -0.164137 0.374726 0.116464
v 0.661457 1.203518 0.233541
v 0.447233 1.238467 0.140394
v -0.005276 0.929316 -0.003461
v 0.264692 1.204439 0.069837
v 0.164062 1.300808 0.286514
v 0.351898 1.237874 -0.169093
v 0.361546 1.329828 0.320826
v 0.519496 1.276908 -0.062291
v 0.182483 1.135904 -0.163215
v 0.037390 1.184517 0.188715
v 0.116648 1.095309 0.023876
v -0.775807 1.586380 -0.502274
v -0.455118 1.545500 -0.362908
v -0.002279 0.933183 0.002025
v -0.219272 1.423033 -0.232400
v -0.040668 1.408699 -0.571985
v -0.303036 1.609597 0.090669
v -0.297387 1.547146 -0.649777
v -0.518011 1.716081 -0.092555
v -0.129717 1.375443 0.136136
v 0.072947 1.220260 -0.375725
v -0.075804 1.211737 -0.111536
v 0.152493 1.162090 -0.056864
v -0.060273 1.214257 -0.075901
v -0.003053 0.927459 -0.003563
v 0.070919 1.312589 -0.002724
v 0.029948 1.191485 0.123335
vt 0.126285 0.093899
vt 0.060694 0.093899
vt 0.126285 0.093899
vt 0.044689 0.093899
vt 0.120426 0.093899
vt 0.044689 0.093899
vt 0.060694 0.093899
vt 0.060694 0.093899
vt 0.315540 0.667161
vt 0.488872 0.674203
vt 0.493273 0.871578
vt 0.497675 0.267717
vt 0.661212 0.274759
vt 0.710346 0.458050
vt 0.497675 0.455702
vt 0.662204 0.681245
vt 0.487405 0.103206
vt 0.285004 0.453355
vt 0.334137 0.260675
vt 0.315540 0.667161
vt 0.488872 0.674203
vt 0.493273 0.871578
vt 0.497675 0.267717
vt 0.661212 0.274759
vt 0.710346 0.458050
vt 0.497675 0.455702
vt 0.662204 0.681245
vt 0.487405 0.103206
vt 0.285004 0.453355
vt 0.334137 0.260675
vt 0.315540 0.667161
vt 0.488872 0.674203
vt 0.493273 0.871578
vt 0.497675 0.267717
vt 0.661212 0.274759
vt 0.710346 0.458050
vt 0.497675 0.455702
vt 0.662204 0.681245
vt 0.487405 0.103206
vt 0.285004 0.453355
vt 0.334137 0.260675
vt 0.315540 0.667161
vt 0.488872 0.674203
vt 0.493273 0.871578
vt 0.497675 0.267717
vt 0.661212 0.274759
vt 0.710346 0.458050
vt 0.497675 0.455702
vt 0.662204 0.681245
vt 0.487405 0.103206
vt 0.285004 0.453355
vt 0.334137 0.260675
vt 0.119555 0.015317
vt 0.220228 0.092815
vt 0.018882 0.092815
vt 0.235803 0.092815
vt 0.119555 0.170314
vt 0.061431 0.092815
vt 0.061431 0.092815
vn 0.0150 0.0770 -0.9969
vn -0.8589 0.0957 0.5032
vn -0.0153 0.9996 -0.0231
vn 0.8338 0.1256 0.5375
vn 0.4764 0.8491 -0.2283
vn 0.2007 0.9334 -0.2973
vn 0.1797 0.8718 -0.4557
vn 0.2167 0.8718 0.4392
vn -0.0398 0.9407 0.3368
vn -0.0540 0.9967 0.0601
vn 0.2245 0.9717 0.0735
vn -0.0782 0.9755 -0.2056
vn 0.2037 0.7927 0.5745
vn 0.4843 0.8740 0.0380
vn 0.4689 0.8248 0.3158
vn -0.1428 0.9551 -0.2595
vn -0.0501 0.9985 0.0187
vn -0.1925 0.9750 0.1112
vn 0.5401 0.7617 -0.3579
vn 0.5913 0.8024 -0.0808
vn 0.3834 0.9210 0.0695
vn 0.2614 0.9481 -0.1810
vn 0.1653 0.9615 0.2192
vn 0.6347 0.6507 -0.4167
vn 0.0843 0.9147 -0.3951
vn 0.3086 0.7965 -0.5199
vn -0.1462 0.9825 0.1151
vn 0.0278 0.9918 -0.1247
vn 0.1856 0.9809 -0.0587
vn -0.6154 0.7059 -0.3505
vn -0.4186 0.7182 -0.5558
vn -0.1781 0.8523 -0.4917
vn -0.3137 0.9146 -0.2549
vn 0.0690 0.9108 -0.4071
vn -0.7161 0.5879 -0.3762
vn -0.3869 0.9220 0.0151
vn -0.6158 0.7841 -0.0768
vn 0.5094 0.7839 -0.3548
vn 0.3640 0.9214 -0.1360
vn 0.2114 0.9554 -0.2062
vn 0.8563 0.4790 0.1931
vn 0.6894 0.6189 0.3763
vn 0.5168 0.8137 0.2660
vn 0.6547 0.7553 0.0295
vn 0.3079 0.9387 0.1547
vn 0.9045 0.3424 0.2541
vn 0.7123 0.6635 -0.2286
vn 0.8741 0.4771 -0.0910
vn -0.1722 -0.9850 -0.0016
vn 0.9034 -0.0608 -0.4245
vn -0.0686 0.1469 0.9868
vn -0.7685 0.3052 -0.5623
vn 0.2378 0.9713 0.0033
g Cube_Cube_Material
usemtl Material
s 1
f 1/1/1 3/2/2 4/3/3
f 3/4/2 2/5/4 4/6/3
f 2/7/4 1/1/1 4/8/3
f 12/9/5 6/10/6 5/11/7
f 15/12/8 14/13/9 9/14/10 8/15/11
f 8/15/11 9/14/10 11/16/12 6/10/6
f 7/17/13 14/13/9 15/12/8
f 10/18/14 8/15/11 6/10/6 12/9/5
f 13/19/15 15/12/8 8/15/11 10/18/14
f 5/11/7 6/10/6 11/16/12
f 15/12/8 13/19/15 7/17/13
f 23/20/16 17/21/17 16/22/18
f 26/23/19 25/24/20 20/25/21 19/26/22
f 19/26/22 20/25/21 22/27/23 17/21/17
f 18/28/24 25/24/20 26/23/19
f 21/29/25 19/26/22 17/21/17 23/20/16
f 24/30/26 26/23/19 19/26/22 21/29/25
f 16/22/18 17/21/17 22/27/23
f 26/23/19 24/30/26 18/28/24
f 34/31/27 28/32/28 27/33/29
f 37/34/30 36/35/31 31/36/32 30/37/33
f 30/37/33 31/36/32 33/38/34 28/32/28
f 29/39/35 36/35/31 37/34/30
f 32/40/36 30/37/33 28/32/28 34/31/27
f 35/41/37 37/34/30 30/37/33 32/40/36
f 27/33/29 28/32/28 33/38/34
f 37/34/30 35/41/37 29/39/35
f 45/42/38 39/43/39 38/44/40
f 48/45/41 47/46/42 42/47/43 41/48/44
f 41/48/44 42/47/43 44/49/45 39/43/39
f 40/50/46 47/46/42 48/45/41
f 43/51/47 41/48/44 39/43/39 45/42/38
f 46/52/48 48/45/41 41/48/44 43/51/47
f 38/44/40 39/43/39 44/49/45
f 48/45/41 46/52/48 40/50/46
f 51/53/49 49/54/50 53/55/51
f 50/56/52 52/57/53 49/58/50
f 51/53/49 53/59/51 50/56/52
f 49/54/50 52/57/53 53/55/51
f 51/53/49 50/56/52 49/58/50
f 53/59/51 52/57/53 50/56/52
