# Blender v2.81 (sub 16) OBJ File: 'tree4.blend'
# www.blender.org
mtllib tris.mtl
o Cube
v -2.756565 13.253169 3.161553
v 2.911179 13.253169 3.161553
v -2.756565 5.479352 0.151540
v 2.911179 5.479352 0.151540
v 3.027479 13.253169 2.813755
v 3.027479 13.253169 -2.853990
v 0.017467 5.479352 2.813755
v 0.017467 5.479352 -2.853990
v -2.948960 13.253169 -2.795995
v -2.948959 13.253169 2.871750
v 0.061053 5.479352 -2.795995
v 0.061053 5.479352 2.871750
v 2.839813 13.253169 -2.846081
v -2.827931 13.253169 -2.846081
v 2.839813 5.479352 0.163931
v -2.827931 5.479352 0.163931
v -0.038909 13.522241 -3.343339
v -3.250176 13.522241 -1.008816
v 1.567266 8.361112 -1.133956
v -1.644001 8.361112 1.200567
v -3.678381 13.152004 0.430848
v -1.343858 13.152004 3.642115
v -1.073388 8.281066 -1.462927
v 1.261135 8.281065 1.748339
v 0.160417 13.897693 3.294303
v 3.017103 13.897693 1.217552
v -1.227622 9.270399 1.384979
v 1.629065 9.270399 -0.691773
v 3.309198 13.216750 0.127080
v 1.232447 13.216750 -2.729606
v 1.197114 8.726147 1.662522
v -0.879637 8.726147 -1.194164
v 2.185585 14.564797 -0.970863
v -0.920506 14.564797 -2.264702
v 1.449225 10.001328 0.796902
v -1.656867 10.001328 -0.496937
v -1.031290 14.925294 -1.996056
v -2.182266 14.925294 0.767068
v 0.541282 10.865711 -1.341003
v -0.609694 10.865709 1.422121
v -2.180638 14.925294 0.921146
v 0.582487 14.925294 2.072123
v -1.525584 10.865709 -0.651426
v 1.237540 10.865709 0.499550
v 0.893579 14.564797 2.308431
v 2.187418 14.564797 -0.797659
v -0.874186 10.001328 1.572071
v 0.419652 10.001328 -1.534020
v -0.000000 6.393373 -0.140313
v 0.133445 6.393373 -0.043359
v 0.000000 -0.817397 -0.660464
v -0.000000 2.341820 -0.401716
v 0.628139 -0.817397 -0.204094
v 0.382055 2.341820 -0.124137
v 0.388211 -0.817397 0.534327
v 0.236123 2.341820 0.324995
v -0.388211 -0.817397 0.534327
v -0.236123 2.341820 0.324995
v -0.628139 -0.817397 -0.204095
v -0.382055 2.341820 -0.124137
v 0.082473 6.393373 0.113515
v -0.082474 6.393373 0.113515
v -0.133446 6.393373 -0.043359
vt 0.112351 0.457913
vt 0.127619 0.457913
vt 0.143695 0.752146
vt 0.138362 0.752146
vt 0.152323 0.235853
vt 0.152323 0.457913
vt 0.192295 0.457913
vt 0.218041 0.235853
vt 0.177027 0.457913
vt 0.160952 0.752146
vt 0.192939 0.235853
vt 0.152323 0.752146
vt 0.166285 0.752146
vt 0.111707 0.235853
vt 0.086605 0.235853
vt 0.928017 0.934227
vt 0.377888 0.934227
vt 0.377888 0.234467
vt 0.928017 0.234467
vt 0.934218 0.935777
vt 0.384089 0.935777
vt 0.384089 0.236018
vt 0.934218 0.236018
vt 0.934218 0.935777
vt 0.384089 0.935777
vt 0.384089 0.236018
vt 0.934218 0.236018
vt 0.934218 0.935777
vt 0.384089 0.935777
vt 0.384089 0.236018
vt 0.934218 0.236018
vt 0.934218 0.935777
vt 0.384089 0.935777
vt 0.384089 0.236018
vt 0.934218 0.236018
vt 0.934218 0.935777
vt 0.384089 0.935777
vt 0.384089 0.236018
vt 0.934218 0.236018
vt 0.934218 0.935777
vt 0.384089 0.935777
vt 0.384089 0.236018
vt 0.934218 0.236018
vt 0.934218 0.935777
vt 0.384089 0.935777
vt 0.384089 0.236018
vt 0.934218 0.236018
vt 0.934218 0.935777
vt 0.384089 0.935777
vt 0.384089 0.236018
vt 0.934218 0.236018
vt 0.934218 0.935777
vt 0.384089 0.935777
vt 0.384089 0.236018
vt 0.934218 0.236018
vt 0.934218 0.935777
vt 0.384089 0.935777
vt 0.384089 0.236018
vt 0.934218 0.236018
vt 0.934218 0.935777
vt 0.384089 0.935777
vt 0.384089 0.236018
vt 0.934218 0.236018
vn -0.9498 0.0521 0.3086
vn 0.5865 0.0661 -0.8072
vn -0.0000 0.0521 0.9986
vn 0.9490 0.0661 0.3083
vn 0.5870 0.0521 -0.8079
vn -0.0000 0.0661 0.9978
vn -0.5870 0.0521 -0.8079
vn 0.9498 0.0521 0.3086
vn -0.9490 0.0661 0.3083
vn -0.5865 0.0661 -0.8072
vn 0.0000 0.3611 -0.9325
vn -0.9325 0.3611 0.0000
vn 0.9325 0.3611 0.0000
vn 0.0000 0.3611 0.9325
vn 0.5197 0.4678 0.7149
vn 0.6747 0.5515 -0.4905
vn -0.5238 0.4544 -0.7205
vn -0.6992 0.5027 0.5083
vn -0.3546 0.3869 0.8512
vn 0.8512 0.3869 0.3546
vn 0.3546 0.3869 -0.8512
vn -0.8512 0.3869 -0.3546
g Cube_Cube_Material
usemtl Material
s off
f 60/1/1 58/2/1 62/3/1 63/4/1
f 51/5/2 52/6/2 54/7/2 53/8/2
f 58/2/3 56/9/3 61/10/3 62/3/3
f 53/8/4 54/7/4 56/9/4 55/11/4
f 54/7/5 52/6/5 49/12/5 50/13/5
f 55/11/6 56/9/6 58/2/6 57/14/6
f 52/6/7 60/1/7 63/4/7 49/12/7
f 56/9/8 54/7/8 50/13/8 61/10/8
f 57/14/9 58/2/9 60/1/9 59/15/9
f 59/15/10 60/1/10 52/6/10 51/5/10
s 1
f 1/16/11 2/17/11 4/18/11 3/19/11
f 5/20/12 6/21/12 8/22/12 7/23/12
f 9/24/13 10/25/13 12/26/13 11/27/13
f 13/28/14 14/29/14 16/30/14 15/31/14
f 17/32/15 18/33/15 20/34/15 19/35/15
f 21/36/16 22/37/16 24/38/16 23/39/16
f 25/40/17 26/41/17 28/42/17 27/43/17
f 29/44/18 30/45/18 32/46/18 31/47/18
f 33/48/19 34/49/19 36/50/19 35/51/19
f 37/52/20 38/53/20 40/54/20 39/55/20
f 41/56/21 42/57/21 44/58/21 43/59/21
f 45/60/22 46/61/22 48/62/22 47/63/22
