# Blender v2.81 (sub 16) OBJ File: 'postlight.blend'
# www.blender.org
mtllib tris.mtl
o Cube
v 0.000000 16.640148 -0.350384
v 0.303441 16.640148 -0.175192
v 0.303441 16.640148 0.175192
v 0.000000 16.640148 0.350384
v -0.303441 16.640148 0.175192
v -0.303441 16.640148 -0.175192
v 0.497357 17.189873 -0.287149
v -0.000000 17.189873 -0.574298
v 0.497357 17.189873 0.287149
v -0.000000 17.189873 0.574298
v -0.497357 17.189873 0.287149
v -0.497357 17.189873 -0.287149
v 1.442670 19.524134 -0.832926
v 0.000000 19.524134 -1.665852
v 1.442670 19.524134 0.832926
v 0.000000 19.524134 1.665852
v -1.442670 19.524134 0.832926
v -1.442670 19.524134 -0.832926
v -0.406078 17.317488 0.234449
v -0.406078 17.317488 -0.234449
v 0.406077 17.317488 0.234449
v -0.000000 17.317488 0.468898
v -0.000000 17.317488 -0.468898
v 0.406077 17.317488 -0.234449
v 0.000000 2.024234 -0.240278
v 0.000000 17.620655 -0.240278
v 0.208087 2.024234 -0.120139
v 0.208087 17.620655 -0.120139
v 0.208087 2.024234 0.120139
v 0.208087 17.620655 0.120139
v 0.000000 2.024234 0.240278
v 0.000000 17.620655 0.240278
v -0.208087 2.024234 0.120139
v -0.208087 17.620655 0.120139
v -0.208087 2.024234 -0.120139
v -0.208087 17.620655 -0.120139
v -1.041718 17.782473 -0.601436
v -0.000000 17.782473 1.202872
v 1.041718 17.782473 -0.601436
v -1.041718 17.782473 0.601436
v 1.041718 17.782473 0.601436
v -0.000000 17.782473 -1.202872
v 0.000000 1.792006 -0.395627
v 0.342623 1.792006 -0.197813
v 0.342623 1.792006 0.197813
v 0.000000 1.792006 0.395627
v -0.342623 1.792006 0.197813
v -0.342623 1.792006 -0.197813
v 0.000000 -0.059114 -0.723830
v 0.626856 -0.059114 -0.361915
v 0.626856 -0.059114 0.361915
v 0.000000 -0.059114 0.723830
v -0.626856 -0.059114 0.361915
v -0.626856 -0.059114 -0.361915
v 0.619945 20.680477 -0.357925
v 0.000000 20.680477 -0.715850
v 0.619945 20.680477 0.357925
v 0.000000 20.680477 0.715850
v -0.619944 20.680477 0.357925
v -0.619944 20.680477 -0.357925
v -1.666407 19.884068 -0.962101
v -1.666407 19.884068 0.962100
v 0.000000 19.884068 1.924201
v 1.666407 19.884068 0.962101
v 1.666407 19.884068 -0.962101
v 0.000000 19.884068 -1.924201
vt 0.814235 0.113460
vt 0.873047 0.113460
vt 0.873047 0.220006
vt 0.776650 0.220006
vt 0.839092 0.113460
vt 0.907002 0.113460
vt 0.928702 0.220006
vt 0.817392 0.220006
vt 0.907002 0.113460
vt 0.839092 0.113460
vt 0.817392 0.220006
vt 0.928702 0.220006
vt 0.931859 0.113460
vt 0.873047 0.113460
vt 0.873047 0.220006
vt 0.969444 0.220006
vt 0.931859 0.113460
vt 0.969444 0.220006
vt 0.814235 0.113460
vt 0.776650 0.220006
vt 0.781709 0.522539
vt 0.971220 0.523679
vt 0.971356 0.978738
vt 0.781574 0.979878
vt 0.781709 0.522539
vt 0.971220 0.523679
vt 0.971356 0.978738
vt 0.781574 0.979878
vt 0.781709 0.522539
vt 0.971220 0.523679
vt 0.971356 0.978738
vt 0.781574 0.979878
vt 0.781709 0.522539
vt 0.971220 0.523679
vt 0.971356 0.978738
vt 0.781574 0.979878
vt 0.781709 0.522539
vt 0.971220 0.523679
vt 0.971356 0.978738
vt 0.781574 0.979878
vt 0.918487 0.244740
vt 0.827606 0.244740
vt 0.873047 0.244740
vt 0.794342 0.244740
vt 0.794342 0.244740
vt 0.873047 0.244740
vt 0.951752 0.244740
vt 0.951752 0.244740
vt 0.827606 0.244740
vt 0.918487 0.244740
vt 0.295074 0.000937
vt 0.329636 0.000937
vt 0.329637 0.886899
vt 0.295074 0.886899
vt 0.346918 0.000000
vt 0.346918 0.885961
vt 0.069556 0.885962
vt 0.069556 0.000000
vt 0.086837 0.000937
vt 0.086837 0.886899
vt 0.121399 0.000937
vt 0.121400 0.886899
vt 0.138681 0.000000
vt 0.138681 0.885962
vt 0.277793 0.885961
vt 0.277793 0.000000
vt 0.943010 0.419078
vt 0.943010 0.327015
vt 0.863281 0.280984
vt 0.783552 0.327015
vt 0.783552 0.419078
vt 0.863281 0.465110
vt 0.430085 0.293749
vt 0.430085 0.206251
vt 0.311473 0.137771
vt 0.311473 0.362229
vt 0.505859 0.162503
vt 0.581634 0.206251
vt 0.700246 0.137771
vt 0.505859 0.025542
vt 0.581634 0.293749
vt 0.505859 0.337497
vt 0.505859 0.474458
vt 0.700246 0.362229
vt 0.883663 0.416441
vt 0.850712 0.416441
vt 0.840060 0.384594
vt 0.894315 0.384594
vt 0.840060 0.384594
vt 0.894315 0.384594
vt 0.916819 0.130739
vt 0.817556 0.130739
vt 0.867188 0.416441
vt 0.895724 0.416441
vt 0.914173 0.384594
vt 0.867188 0.384594
vt 0.838651 0.416441
vt 0.820202 0.384594
vt 0.850712 0.416441
vt 0.883663 0.416441
vt 0.867188 0.416441
vt 0.838651 0.416441
vt 0.820202 0.384594
vt 0.867188 0.384594
vt 0.895724 0.416441
vt 0.914173 0.384594
vt 0.867188 0.130739
vt 0.953152 0.130739
vt 0.953152 0.130739
vt 0.867188 0.130739
vt 0.781223 0.130739
vt 0.781223 0.130739
vt 0.817556 0.130739
vt 0.916819 0.130739
vt 0.781709 0.522539
vt 0.971220 0.523679
vt 0.971356 0.978738
vt 0.781574 0.979878
vt 0.445937 0.243986
vt 0.445937 0.095858
vt 0.526495 0.142368
vt 0.526495 0.197475
vt 0.574219 0.021794
vt 0.702501 0.095858
vt 0.621943 0.142368
vt 0.574219 0.114815
vt 0.702501 0.243986
vt 0.574219 0.318049
vt 0.574219 0.225029
vt 0.621943 0.197475
vt 0.385658 0.035576
vt 0.598717 0.035576
vt 0.615239 0.081611
vt 0.369136 0.081611
vt 0.307672 0.035576
vt 0.492188 0.035576
vt 0.492188 0.081611
vt 0.279057 0.081611
vt 0.492188 0.035576
vt 0.307672 0.035576
vt 0.279057 0.081611
vt 0.492188 0.081611
vt 0.676703 0.035576
vt 0.705318 0.081611
vt 0.676703 0.035576
vt 0.705318 0.081611
vt 0.598717 0.035576
vt 0.385658 0.035576
vt 0.369136 0.081611
vt 0.615239 0.081611
vn -0.4715 -0.3327 0.8167
vn 0.9430 -0.3327 0.0000
vn -0.9430 -0.3327 0.0000
vn 0.4715 -0.3327 -0.8167
vn 0.4715 -0.3327 0.8167
vn -0.4715 -0.3327 -0.8167
vn -0.9745 -0.2243 0.0000
vn 0.4873 -0.2243 0.8440
vn 0.4873 -0.2243 -0.8440
vn -0.4873 -0.2243 -0.8440
vn -0.4873 -0.2243 0.8440
vn 0.8134 0.5818 0.0000
vn -0.4067 0.5818 0.7044
vn -0.4067 0.5818 -0.7044
vn 0.4067 0.5818 -0.7044
vn 0.4067 0.5818 0.7044
vn -0.8134 0.5818 0.0000
vn 0.5000 0.0000 -0.8660
vn 1.0000 0.0000 0.0000
vn 0.5000 0.0000 0.8660
vn -0.5000 0.0000 0.8660
vn -1.0000 0.0000 0.0000
vn -0.5000 0.0000 -0.8660
vn 0.0000 -1.0000 0.0000
vn -0.5904 -0.8071 0.0000
vn 0.2952 -0.8071 0.5113
vn 0.2952 -0.8071 -0.5113
vn -0.2952 -0.8071 -0.5113
vn -0.2952 -0.8071 0.5113
vn 0.5904 -0.8071 0.0000
vn 0.8653 0.5013 0.0000
vn -0.9884 0.1518 0.0000
vn 0.4326 0.5013 -0.7494
vn -0.4326 0.5013 -0.7494
vn -0.8653 0.5013 0.0000
vn -0.4326 0.5013 0.7494
vn 0.4326 0.5013 0.7494
vn 0.4942 0.1518 0.8560
vn 0.4942 0.1518 -0.8560
vn -0.4942 0.1518 -0.8560
vn -0.4942 0.1518 0.8560
vn 0.9884 0.1518 0.0000
vn 0.9745 -0.2243 0.0000
vn -0.6056 0.7958 0.0000
vn 0.3028 0.7958 0.5245
vn 0.3028 0.7958 -0.5245
vn -0.3028 0.7958 -0.5245
vn -0.3028 0.7958 0.5245
vn 0.6056 0.7958 0.0000
vn 0.0000 1.0000 -0.0000
vn 0.8493 -0.5279 0.0000
vn -0.4246 -0.5279 0.7355
vn -0.4246 -0.5279 -0.7355
vn 0.4246 -0.5279 -0.7355
vn 0.4246 -0.5279 0.7355
vn -0.8493 -0.5279 0.0000
g Cube_Cube_Material
usemtl Material
s off
f 5/1/1 4/2/1 10/3/1 11/4/1
f 3/5/2 2/6/2 7/7/2 9/8/2
f 6/9/3 5/10/3 11/11/3 12/12/3
f 2/13/4 1/14/4 8/15/4 7/16/4
f 4/2/5 3/17/5 9/18/5 10/3/5
f 1/14/6 6/19/6 12/20/6 8/15/6
f 37/21/7 40/22/7 17/23/7 18/24/7
f 38/25/8 41/26/8 15/27/8 16/28/8
f 39/29/9 42/30/9 14/31/9 13/32/9
f 42/33/10 37/34/10 18/35/10 14/36/10
f 40/37/11 38/38/11 16/39/11 17/40/11
f 9/8/12 7/7/12 24/41/12 21/42/12
f 11/4/13 10/3/13 22/43/13 19/44/13
f 8/15/14 12/20/14 20/45/14 23/46/14
f 7/16/15 8/15/15 23/46/15 24/47/15
f 10/3/16 9/18/16 21/48/16 22/43/16
f 12/12/17 11/11/17 19/49/17 20/50/17
f 26/51/18 28/52/18 27/53/18 25/54/18
f 27/53/19 28/52/19 30/55/19 29/56/19
f 29/57/20 30/58/20 32/59/20 31/60/20
f 31/60/21 32/59/21 34/61/21 33/62/21
f 33/62/22 34/61/22 36/63/22 35/64/22
f 35/65/23 36/66/23 26/51/23 25/54/23
f 2/67/24 3/68/24 4/69/24 5/70/24 6/71/24 1/72/24
f 20/73/25 19/74/25 40/75/25 37/76/25
f 22/77/26 21/78/26 41/79/26 38/80/26
f 24/81/27 23/82/27 42/83/27 39/84/27
f 23/82/28 20/73/28 37/76/28 42/83/28
f 19/74/29 22/77/29 38/80/29 40/75/29
f 21/78/30 24/81/30 39/84/30 41/79/30
f 27/85/31 29/86/31 45/87/31 44/88/31
f 47/89/32 48/90/32 54/91/32 53/92/32
f 25/93/33 27/94/33 44/95/33 43/96/33
f 35/97/34 25/93/34 43/96/34 48/98/34
f 33/99/35 35/100/35 48/90/35 47/89/35
f 31/101/36 33/102/36 47/103/36 46/104/36
f 29/105/37 31/101/37 46/104/37 45/106/37
f 45/106/38 46/104/38 52/107/38 51/108/38
f 43/96/39 44/95/39 50/109/39 49/110/39
f 48/98/40 43/96/40 49/110/40 54/111/40
f 46/104/41 47/103/41 53/112/41 52/107/41
f 44/88/42 45/87/42 51/113/42 50/114/42
f 41/115/43 39/116/43 13/117/43 15/118/43
f 61/119/44 62/120/44 59/121/44 60/122/44
f 63/123/45 64/124/45 57/125/45 58/126/45
f 65/127/46 66/128/46 56/129/46 55/130/46
f 66/128/47 61/119/47 60/122/47 56/129/47
f 62/120/48 63/123/48 58/126/48 59/121/48
f 64/124/49 65/127/49 55/130/49 57/125/49
f 55/130/50 56/129/50 60/122/50 59/121/50 58/126/50 57/125/50
f 15/131/51 13/132/51 65/133/51 64/134/51
f 17/135/52 16/136/52 63/137/52 62/138/52
f 14/139/53 18/140/53 61/141/53 66/142/53
f 13/143/54 14/139/54 66/142/54 65/144/54
f 16/136/55 15/145/55 64/146/55 63/137/55
f 18/147/56 17/148/56 62/149/56 61/150/56
