# Blender 4.0.1
# www.blender.org
o rock_01
v -3.487971 -1.771661 7.081772
v -5.328471 -1.537645 4.495791
v -3.783571 -3.199133 4.840911
v 0.367320 -1.918320 7.415142
v -0.062080 -3.124595 5.702901
v -4.418921 -0.386875 6.959921
v -1.204240 -0.466396 7.150252
v -5.819851 -0.345568 4.457641
v 3.880001 -1.569586 5.776221
v 3.316871 -0.669988 7.451192
v 2.076791 -2.273464 5.864682
v 5.192941 -0.150514 6.633161
v 1.112130 -0.286440 7.230402
v 2.228101 0.661876 7.201161
v 1.482490 1.709464 6.837402
v 5.583992 1.628930 4.828591
v 2.429301 2.704964 5.072611
v 0.756340 2.557352 6.249301
v -1.115150 1.543989 6.746871
v 6.394772 -0.311378 5.389041
v -1.877700 2.156997 6.012941
v -3.965611 2.190557 3.086051
v -4.620711 1.448825 4.450551
v -5.511791 0.544034 5.453651
v -3.797231 0.930916 6.777931
v -0.432770 2.888289 5.721441
v -2.453101 2.960440 2.830480
v -5.115151 2.322741 1.637600
v 0.702640 3.500685 4.932361
v -1.108900 3.726816 2.863210
v 1.167320 4.202255 1.747530
v -0.450040 4.312631 -0.447880
v -1.959720 4.031455 0.531460
v -3.597471 3.408434 0.667030
v -3.527891 3.169687 -1.203331
v 5.734561 2.866925 2.976970
v 3.414741 4.094468 2.696810
v 4.429471 3.455066 -0.402800
v 2.324691 4.458133 0.467800
v 1.771640 4.338576 -2.291361
v 3.867191 2.646903 -5.478921
v 1.079680 3.361130 -5.514872
v 2.815721 4.131135 -1.651681
v 4.927471 2.944580 -2.127671
v -0.821170 3.867383 -2.786941
v -2.055970 3.313539 -3.842991
v -1.319830 2.983003 -5.539851
v -4.315611 1.227165 -4.004471
v -0.077340 2.016542 -6.499602
v -1.633820 -0.536114 -6.344471
v 1.201030 -0.323239 -7.507132
v -2.980441 -0.167724 -5.290831
v -4.487931 -0.494093 -4.156561
v 5.803542 0.789647 -4.696721
v 4.969731 -0.843576 -5.916371
v 3.418751 0.596440 -6.589491
v 1.743840 1.592245 -6.439501
v 2.198210 -1.652249 -7.096941
v 3.957131 -2.181940 -4.941211
v 0.199800 -3.723213 -5.383301
v -0.136980 -1.500362 -7.121232
v 2.468331 -3.415210 -4.307681
v -4.972381 -2.644211 -2.475920
v -2.857091 -1.707737 -5.218211
v -2.324431 -3.127876 -5.004171
v -5.452761 -3.058375 2.938251
v -4.330311 -3.736152 2.552321
v -5.006671 -3.249075 -0.113020
v -3.988291 -3.834614 0.824670
v -0.750270 -3.990550 0.641850
v 0.478470 -3.769011 2.696251
v -2.071191 -3.754260 2.831831
v -3.664591 -3.826730 -1.267470
v -2.793051 -3.913014 -3.477981
v -0.081250 -3.800293 -3.493391
v -1.308270 -3.863606 -2.470570
v 4.421571 -2.876723 -3.143481
v 5.455011 -2.982026 -0.449500
v 1.778740 -3.981855 1.010241
v 2.988861 -3.629733 -1.634110
v 1.161240 -4.038872 -0.902030
v 3.115391 -3.410772 2.507641
v 5.978392 -2.609991 1.790941
v 6.533372 1.330227 3.469161
v 7.324471 -0.197692 1.995270
v 7.027271 0.905030 -0.279710
v 7.141842 1.745105 0.812780
v 6.590891 2.229075 -1.210350
v 7.373032 -1.305229 3.707201
v 6.568552 -1.821159 -1.536060
v 6.998872 -1.687800 1.641371
v 5.625921 -1.774840 -3.825081
v 6.636692 -0.501689 -1.881680
v 6.378682 1.777136 -3.118291
v -5.654322 -0.220322 -2.321051
v -6.101542 0.716866 -0.238740
v -5.372341 1.664817 -0.114970
v -6.455541 -0.219236 -0.675170
v -6.686832 -0.023619 1.805380
v -5.998871 -2.462259 -0.195840
v -6.378392 -1.391951 2.274870
v -6.453362 0.905079 2.799921
vn -0.3299 -0.4613 0.8236
vn -0.7820 -0.4175 0.4627
vn -0.3455 -0.8309 0.4362
vn 0.0576 -0.4624 0.8848
vn 0.0722 -0.8993 0.4314
vn -0.5515 -0.0383 0.8333
vn -0.0559 0.1425 0.9882
vn -0.8976 -0.2014 0.3922
vn 0.3629 -0.7940 0.4878
vn 0.2949 -0.2446 0.9237
vn 0.3152 -0.8271 0.4654
vn 0.5633 -0.0503 0.8247
vn -0.0710 0.1458 0.9868
vn 0.1004 0.3242 0.9407
vn 0.1392 0.5436 0.8277
vn 0.5425 0.6230 0.5636
vn 0.3049 0.7599 0.5741
vn 0.0900 0.7089 0.6995
vn -0.1016 0.4480 0.8882
vn 0.7654 -0.0950 0.6365
vn -0.2869 0.8026 0.5230
vn -0.3518 0.8756 0.3311
vn -0.4317 0.8439 0.3184
vn -0.7901 0.3636 0.4935
vn -0.3290 0.5556 0.7636
vn -0.2226 0.8121 0.5394
vn -0.4122 0.8378 0.3580
vn -0.5896 0.8014 0.1005
vn 0.0231 0.9014 0.4323
vn -0.2796 0.9189 0.2785
vn -0.0721 0.9832 0.1679
vn -0.1601 0.9864 -0.0377
vn -0.2598 0.9649 0.0385
vn -0.4740 0.8777 0.0708
vn -0.5291 0.8248 -0.1995
vn 0.5716 0.7664 0.2931
vn 0.2694 0.9272 0.2603
vn 0.4434 0.8936 -0.0706
vn 0.1487 0.9886 0.0235
vn 0.0924 0.9760 -0.1973
vn 0.4167 0.6643 -0.6205
vn 0.0513 0.8101 -0.5840
vn 0.3521 0.9248 -0.1442
vn 0.4601 0.8666 -0.1930
vn -0.2076 0.9586 -0.1949
vn -0.4242 0.8574 -0.2915
vn -0.3779 0.6737 -0.6351
vn -0.7111 0.4224 -0.5621
vn -0.1744 0.4179 -0.8916
vn -0.5174 0.0348 -0.8550
vn 0.0107 0.0969 -0.9952
vn -0.5821 0.0771 -0.8095
vn -0.7320 -0.0777 -0.6769
vn 0.8168 0.1503 -0.5570
vn 0.6577 -0.2649 -0.7051
vn 0.3766 0.2517 -0.8916
vn 0.1515 0.4650 -0.8723
vn 0.2832 -0.4542 -0.8447
vn 0.4438 -0.7543 -0.4839
vn 0.0214 -0.8830 -0.4688
vn -0.2769 -0.2932 -0.9151
vn 0.2995 -0.9038 -0.3056
vn -0.7331 -0.5369 -0.4175
vn -0.6089 -0.2503 -0.7527
vn -0.4610 -0.5894 -0.6634
vn -0.7009 -0.6653 0.2571
vn -0.2779 -0.9527 0.1228
vn -0.5363 -0.8365 -0.1127
vn -0.2449 -0.9695 -0.0092
vn -0.0258 -0.9989 0.0402
vn 0.0590 -0.9810 0.1849
vn -0.0224 -0.9867 0.1607
vn -0.2994 -0.9488 -0.1004
vn -0.3126 -0.9106 -0.2705
vn 0.0651 -0.9960 -0.0610
vn -0.0039 -0.9997 -0.0245
vn 0.4402 -0.8542 -0.2767
vn 0.4772 -0.8763 -0.0659
vn 0.1393 -0.9861 0.0905
vn 0.2358 -0.9668 -0.0981
vn 0.0789 -0.9951 -0.0603
vn 0.2683 -0.9285 0.2566
vn 0.4704 -0.8708 0.1426
vn 0.8528 0.4003 0.3354
vn 0.9981 0.0527 0.0322
vn 0.9817 0.0383 -0.1865
vn 0.9037 0.4281 0.0093
vn 0.7645 0.6251 -0.1575
vn 0.8662 -0.3558 0.3509
vn 0.8453 -0.4785 -0.2376
vn 0.8576 -0.5082 -0.0790
vn 0.7407 -0.5410 -0.3984
vn 0.9566 -0.0984 -0.2742
vn 0.8316 0.4402 -0.3386
vn -0.8895 0.0677 -0.4519
vn -0.8292 0.5139 -0.2198
vn -0.7201 0.6658 -0.1956
vn -0.9502 0.0975 -0.2959
vn -0.9985 0.0492 0.0255
vn -0.8364 -0.5212 -0.1697
vn -0.9404 -0.2921 0.1742
vn -0.8751 0.4348 0.2123
vt 0.619500 0.085700
vt 0.551300 0.116200
vt 0.546600 0.035400
vt 0.700800 0.020900
vt 0.043000 0.716900
vt 0.127900 0.785200
vt 0.109400 0.858100
vt 0.613100 0.149700
vt 0.682300 0.118900
vt 0.555000 0.184900
vt 0.223100 0.879500
vt 0.184000 0.935100
vt 0.176100 0.838300
vt 0.245500 0.959500
vt 0.759700 0.080400
vt 0.809700 0.032600
vt 0.810300 0.108200
vt 0.106300 0.376000
vt 0.169300 0.262300
vt 0.180300 0.361600
vt 0.806200 0.220900
vt 0.735600 0.187500
vt 0.811600 0.167500
vt 0.145900 0.410900
vt 0.072800 0.237800
vt 0.102100 0.191600
vt 0.067300 0.335100
vt 0.021600 0.278500
vt 0.722600 0.228900
vt 0.659900 0.283600
vt 0.633600 0.246400
vt 0.605000 0.203500
vt 0.665400 0.189100
vt 0.775400 0.255300
vt 0.693000 0.333200
vt 0.590600 0.326000
vt 0.168400 0.450400
vt 0.204800 0.416900
vt 0.262400 0.469500
vt 0.247200 0.522300
vt 0.297100 0.403600
vt 0.363800 0.445500
vt 0.333000 0.493700
vt 0.634600 0.400100
vt 0.319100 0.551200
vt 0.795700 0.945300
vt 0.876100 0.943200
vt 0.837900 0.984000
vt 0.245500 0.267200
vt 0.265800 0.351000
vt 0.336900 0.289000
vt 0.330200 0.367900
vt 0.771800 0.808500
vt 0.826500 0.691600
vt 0.862000 0.761400
vt 0.740200 0.784400
vt 0.730600 0.698500
vt 0.839100 0.852800
vt 0.410600 0.372500
vt 0.387100 0.338000
vt 0.378300 0.246400
vt 0.893600 0.855800
vt 0.779500 0.893000
vt 0.917000 0.803400
vt 0.556100 0.805000
vt 0.590700 0.928500
vt 0.499800 0.912700
vt 0.450300 0.880100
vt 0.933500 0.737400
vt 0.469300 0.710100
vt 0.409700 0.826100
vt 0.380800 0.704700
vt 0.512700 0.760600
vt 0.567600 0.724600
vt 0.811100 0.594900
vt 0.864700 0.536300
vt 0.890700 0.622200
vt 0.973100 0.615000
vt 0.903800 0.687500
vt 0.970800 0.540100
vt 0.908600 0.478700
vt 0.462500 0.558400
vt 0.431800 0.660100
vt 0.372200 0.632300
vt 0.957100 0.415300
vt 0.404800 0.522000
vt 0.620900 0.627800
vt 0.520200 0.683300
vt 0.519100 0.616800
vt 0.481600 0.076900
vt 0.463400 0.029000
vt 0.384000 0.087100
vt 0.401000 0.028900
vt 0.181600 0.647200
vt 0.182500 0.712100
vt 0.116900 0.683300
vt 0.062000 0.645000
vt 0.096300 0.604700
vt 0.135700 0.556000
vt 0.560100 0.554500
vt 0.633300 0.550100
vt 0.486700 0.514100
vt 0.214200 0.561600
vt 0.191600 0.513100
vt 0.261800 0.555200
vt 0.697000 0.535400
vt 0.684300 0.586400
vt 0.881300 0.419600
vt 0.355400 0.726100
vt 0.237300 0.692200
vt 0.311100 0.651300
vt 0.902800 0.346700
vt 0.810600 0.364800
vt 0.251200 0.638700
vt 0.408200 0.440700
vt 0.248700 0.752600
vt 0.333100 0.792700
vt 0.191200 0.210000
vt 0.192400 0.135500
vt 0.278100 0.152800
vt 0.247000 0.193600
vt 0.327800 0.202500
vt 0.342600 0.886300
vt 0.135800 0.008700
vt 0.253800 0.008700
vt 0.165700 0.061600
vt 0.118100 0.113200
vt 0.295000 0.944100
vt 0.846700 0.477900
vt 0.760300 0.503900
vt 0.784000 0.438600
vt 0.294900 0.067100
vt 0.743100 0.331900
vt 0.750400 0.623300
vt 0.376000 0.163300
vt 0.628100 0.746300
vt 0.681200 0.806100
vt 0.664400 0.858700
vt 0.438600 0.260000
vt 0.510700 0.228500
vt 0.481600 0.300300
vt 0.682600 0.752500
vt 0.638500 0.964400
vt 0.694700 0.637000
vt 0.399800 0.142100
vt 0.492100 0.164200
vt 0.557900 0.247500
vt 0.524700 0.343700
s 1
f 1/1/1 2/2/2 3/3/3
f 4/4/4 1/1/1 3/3/3
f 3/5/3 5/6/5 4/7/4
f 6/8/6 1/1/1 7/9/7
f 1/1/1 4/4/4 7/9/7
f 8/10/8 2/2/2 6/8/6
f 6/8/6 2/2/2 1/1/1
f 9/11/9 10/12/10 11/13/11
f 9/11/9 12/14/12 10/12/10
f 13/15/13 7/9/7 4/4/4
f 4/4/4 10/16/10 13/15/13
f 10/16/10 14/17/14 13/15/13
f 4/7/4 5/6/5 11/13/11
f 11/13/11 10/12/10 4/7/4
f 15/18/15 16/19/16 17/20/17
f 18/21/18 19/22/19 15/23/15
f 15/18/15 17/20/17 18/24/18
f 19/22/19 13/15/13 14/17/14
f 14/17/14 15/23/15 19/22/19
f 12/25/12 20/26/20 16/19/16
f 16/19/16 15/18/15 12/25/12
f 12/25/12 15/18/15 14/27/14
f 14/27/14 10/28/10 12/25/12
f 21/29/21 22/30/22 23/31/23
f 24/32/24 25/33/25 23/31/23
f 25/33/25 21/29/21 23/31/23
f 8/10/8 6/8/6 24/32/24
f 25/33/25 24/32/24 6/8/6
f 7/9/7 13/15/13 19/22/19
f 25/33/25 7/9/7 19/22/19
f 25/33/25 6/8/6 7/9/7
f 19/22/19 18/21/18 26/34/26
f 19/22/19 26/34/26 21/29/21
f 21/29/21 25/33/25 19/22/19
f 22/30/22 21/29/21 27/35/27
f 21/29/21 26/34/26 27/35/27
f 27/35/27 28/36/28 22/30/22
f 26/37/26 18/24/18 29/38/29
f 26/37/26 29/38/29 30/39/30
f 30/39/30 27/40/27 26/37/26
f 31/41/31 32/42/32 33/43/33
f 30/39/30 31/41/31 33/43/33
f 34/44/34 28/36/28 27/35/27
f 27/40/27 30/39/30 34/45/34
f 30/39/30 33/43/33 34/45/34
f 33/46/33 35/47/35 34/48/34
f 17/20/17 16/19/16 36/49/36
f 37/50/37 17/20/17 36/49/36
f 37/50/37 36/49/36 38/51/38
f 39/52/39 37/50/37 38/51/38
f 39/52/39 32/42/32 31/41/31
f 29/38/29 18/24/18 17/20/17
f 37/50/37 39/52/39 31/41/31
f 17/20/17 37/50/37 29/38/29
f 29/38/29 37/50/37 31/41/31
f 31/41/31 30/39/30 29/38/29
f 40/53/40 41/54/41 42/55/42
f 40/53/40 43/56/43 41/54/41
f 41/54/41 43/56/43 44/57/44
f 45/58/45 40/53/40 42/55/42
f 32/42/32 39/52/39 40/59/40
f 43/60/43 40/59/40 39/52/39
f 38/51/38 44/61/44 43/60/43
f 43/60/43 39/52/39 38/51/38
f 45/58/45 46/62/46 35/47/35
f 40/53/40 45/58/45 32/63/32
f 35/47/35 33/46/33 32/63/32
f 35/47/35 32/63/32 45/58/45
f 45/58/45 42/55/42 47/64/47
f 47/64/47 46/62/46 45/58/45
f 48/65/48 35/66/35 46/67/46
f 48/65/48 46/67/46 47/68/47
f 47/64/47 42/55/42 49/69/49
f 50/70/50 47/68/47 49/71/49
f 50/70/50 49/71/49 51/72/51
f 52/73/52 53/74/53 48/65/48
f 48/65/48 47/68/47 52/73/52
f 47/68/47 50/70/50 52/73/52
f 54/75/54 55/76/55 56/77/56
f 41/54/41 54/75/54 56/77/56
f 56/77/56 51/78/51 57/79/57
f 51/78/51 49/69/49 57/79/57
f 57/79/57 49/69/49 42/55/42
f 41/54/41 57/79/57 42/55/42
f 41/54/41 56/77/56 57/79/57
f 58/80/58 55/76/55 59/81/59
f 60/82/60 61/83/61 58/84/58
f 59/81/59 62/85/62 58/80/58
f 58/84/58 62/86/62 60/82/60
f 51/78/51 56/77/56 58/80/58
f 58/84/58 61/83/61 51/72/51
f 58/80/58 56/77/56 55/76/55
f 63/87/63 64/88/64 65/89/65
f 53/74/53 52/73/52 64/88/64
f 64/88/64 52/73/52 50/70/50
f 51/72/51 61/83/61 50/70/50
f 64/88/64 50/70/50 61/83/61
f 61/83/61 60/82/60 65/89/65
f 65/89/65 64/88/64 61/83/61
f 66/90/66 67/91/67 3/3/3
f 67/91/67 68/92/68 69/93/69
f 70/94/70 71/95/71 72/96/72
f 72/96/72 67/97/67 69/98/69
f 72/96/72 69/98/69 70/94/70
f 73/99/73 70/94/70 69/98/69
f 3/5/3 72/96/72 5/6/5
f 67/97/67 72/96/72 3/5/3
f 72/96/72 71/95/71 5/6/5
f 74/100/74 73/101/73 63/87/63
f 74/100/74 63/87/63 65/89/65
f 74/100/74 65/89/65 60/82/60
f 60/82/60 75/102/75 74/100/74
f 70/94/70 73/99/73 76/103/76
f 73/99/73 74/104/74 76/103/76
f 74/104/74 75/105/75 76/103/76
f 69/106/69 68/107/68 73/101/73
f 59/81/59 77/108/77 62/85/62
f 78/109/78 79/110/79 80/111/80
f 80/112/80 62/85/62 77/108/77
f 80/112/80 77/108/77 78/113/78
f 70/94/70 76/103/76 81/114/81
f 76/103/76 75/105/75 81/114/81
f 81/114/81 75/105/75 80/111/80
f 80/115/80 75/102/75 62/86/62
f 75/102/75 60/82/60 62/86/62
f 11/13/11 82/116/82 9/11/9
f 82/116/82 83/117/83 9/11/9
f 5/6/5 71/95/71 82/116/82
f 82/116/82 11/13/11 5/6/5
f 79/110/79 70/94/70 81/114/81
f 80/111/80 79/110/79 81/114/81
f 79/110/79 82/116/82 71/95/71
f 71/95/71 70/94/70 79/110/79
f 82/116/82 79/110/79 78/109/78
f 82/116/82 78/109/78 83/117/83
f 16/19/16 84/118/84 36/49/36
f 84/118/84 16/19/16 20/26/20
f 85/119/85 86/120/86 87/121/87
f 20/26/20 85/119/85 84/118/84
f 84/118/84 85/119/85 87/121/87
f 36/49/36 84/118/84 87/121/87
f 87/121/87 88/122/88 36/49/36
f 9/11/9 83/117/83 89/123/89
f 83/124/83 90/125/90 91/126/91
f 91/126/91 89/127/89 83/124/83
f 89/127/89 91/126/91 85/119/85
f 90/125/90 85/119/85 91/126/91
f 12/14/12 9/11/9 20/128/20
f 20/128/20 9/11/9 89/123/89
f 85/119/85 20/26/20 89/127/89
f 77/108/77 59/81/59 92/129/92
f 59/81/59 55/76/55 92/129/92
f 92/129/92 93/130/93 90/131/90
f 90/131/90 77/108/77 92/129/92
f 55/76/55 54/75/54 93/130/93
f 92/129/92 55/76/55 93/130/93
f 86/120/86 85/119/85 93/132/93
f 93/132/93 85/119/85 90/125/90
f 78/113/78 77/108/77 90/131/90
f 90/131/90 83/133/83 78/113/78
f 41/54/41 44/57/44 94/134/94
f 94/134/94 54/75/54 41/54/41
f 38/51/38 36/49/36 88/122/88
f 94/135/94 44/61/44 88/122/88
f 44/61/44 38/51/38 88/122/88
f 93/132/93 94/135/94 86/120/86
f 93/130/93 54/75/54 94/134/94
f 94/135/94 88/122/88 86/120/86
f 87/121/87 86/120/86 88/122/88
f 48/65/48 53/74/53 95/136/95
f 95/136/95 96/137/96 48/65/48
f 96/137/96 97/138/97 48/65/48
f 98/139/98 99/140/99 96/141/96
f 96/137/96 95/136/95 98/142/98
f 97/138/97 34/143/34 35/66/35
f 48/65/48 97/138/97 35/66/35
f 64/88/64 63/87/63 53/74/53
f 95/136/95 53/74/53 63/87/63
f 95/136/95 63/87/63 100/144/100
f 63/87/63 68/107/68 100/144/100
f 63/87/63 73/101/73 68/107/68
f 98/142/98 95/136/95 100/144/100
f 98/139/98 100/145/100 101/146/101
f 2/2/2 66/90/66 3/3/3
f 101/146/101 66/90/66 2/2/2
f 101/146/101 2/2/2 8/10/8
f 99/140/99 98/139/98 101/146/101
f 101/146/101 8/10/8 99/140/99
f 68/92/68 67/91/67 66/90/66
f 66/90/66 101/146/101 100/145/100
f 66/90/66 100/145/100 68/92/68
f 22/30/22 28/36/28 23/31/23
f 28/36/28 102/147/102 23/31/23
f 34/44/34 97/148/97 28/36/28
f 97/148/97 102/147/102 28/36/28
f 8/10/8 102/147/102 99/140/99
f 99/140/99 102/147/102 96/141/96
f 97/148/97 96/141/96 102/147/102
f 24/32/24 23/31/23 102/147/102
f 102/147/102 8/10/8 24/32/24
