# Blender v2.63 (sub 0) OBJ File: ''
# www.blender.org
o Cube_Cube.001
v -1.414213 9.000003 0.000005
v 0.000000 9.000003 -0.282838
v 0.000000 0.000003 -0.282838
v -1.414213 0.000003 0.000005
v 0.000001 9.000003 0.282848
v 1.414214 9.000003 0.000005
v 1.414214 0.000003 0.000005
v 0.000001 0.000003 0.282848
v 0.000001 11.000003 0.000005
v -3.000000 0.000003 -0.391416
v 0.000000 0.000003 -0.782838
v 0.000001 0.000003 0.782848
v -3.000000 0.000003 0.391426
v 3.000000 0.000003 -0.391416
v 3.000001 0.000003 0.391426
v -3.000000 -0.999997 -0.391416
v 0.000000 -0.999997 -0.782838
v 0.000001 -0.999997 0.782848
v -3.000000 -0.999997 0.391426
v 3.000000 -0.999997 -0.391416
v 3.000001 -0.999997 0.391426
v 0.000001 -1.000000 -0.500000
v -0.000001 -5.000000 -0.500000
v -1.136121 -0.999999 -0.250000
v -1.136122 -5.000000 -0.250000
v -1.136121 -0.999999 0.250000
v -1.136122 -5.000000 0.250000
v 0.000001 -1.000000 0.500000
v -0.000001 -5.000000 0.500000
v 1.136122 -1.000001 0.250000
v 1.136121 -5.000000 0.250000
v 1.136122 -1.000001 -0.250000
v 1.136121 -5.000000 -0.250000
vt 0.239606 0.760137
vt 0.239989 0.000597
vt 0.358422 0.000000
vt 0.544680 0.133866
vt 0.520804 0.253249
vt 0.478595 0.253249
vt 0.119614 0.169223
vt 0.239606 0.169010
vt 0.118683 0.928853
vt 0.478212 0.760055
vt 0.358039 0.759540
vt 0.000000 0.928232
vt 0.000930 0.168603
vt 0.358824 0.928883
vt 0.120475 0.000000
vt 0.568557 0.253249
vt 0.610765 0.253249
vt 0.511638 0.000000
vt 0.577722 0.000000
vt 0.544680 0.372631
vt 0.577722 0.506498
vt 0.511638 0.506498
vt 0.827337 0.252250
vt 0.828262 0.506307
vt 0.743859 0.506463
vt 0.829119 0.251877
vt 0.828262 0.000000
vt 0.912655 0.000043
vt 0.802920 0.844732
vt 0.869005 0.844529
vt 0.869263 0.928945
vt 0.610506 0.928934
vt 0.544421 0.928732
vt 0.544680 0.844316
vt 0.742934 0.252405
vt 0.743168 0.000156
vt 0.827572 0.000000
vt 0.913512 0.251919
vt 0.912830 0.506203
vt 0.828437 0.506161
vt 0.643807 0.000000
vt 0.709892 0.000000
vt 0.655746 0.157342
vt 0.707627 0.506498
vt 0.802507 0.844642
vt 0.802920 0.507029
vt 0.643807 0.506498
vt 0.655746 0.349156
vt 1.000000 0.506074
vt 0.956756 0.168540
vt 0.957792 0.506204
vt 0.709892 0.506498
vt 0.697954 0.349156
vt 0.742934 0.253249
vt 0.610765 0.506498
vt 0.610351 0.844111
vt 0.514315 0.506703
vt 0.899533 0.844529
vt 0.899703 0.506956
vt 0.802920 0.844071
vt 0.920807 0.506498
vt 0.899703 0.602405
vt 0.963015 0.506498
vt 0.611178 0.506703
vt 0.707214 0.844110
vt 0.914548 0.168411
vt 0.955720 0.506204
vt 0.719058 0.253249
vt 0.697954 0.157342
vt 0.238675 0.928639
vt 0.478595 0.000515
vt 0.803179 0.929148
vt 0.610765 0.844518
vt 0.634642 0.253249
vt 0.998964 0.168411
vt 0.513902 0.844316
vt 0.803091 0.506498
vt 0.984119 0.602405
vt 0.920807 0.698312
vt 0.963015 0.698312
vt 0.610765 0.844316
vt 0.913512 0.506074
vn 0.196116 0.000000 -0.980581
vn 0.000000 1.000000 -0.000000
vn -0.196116 0.000000 0.980581
vn -0.196116 0.000000 -0.980581
vn 0.196116 0.000000 0.980581
vn -0.194257 0.137361 -0.971286
vn 0.194257 0.137361 -0.971286
vn 0.194257 0.137361 0.971286
vn -0.194257 0.137361 0.971286
vn -0.129377 0.000000 0.991595
vn 0.129377 0.000000 -0.991595
vn 1.000000 0.000000 -0.000000
vn -1.000000 0.000000 0.000000
vn 0.129377 0.000000 0.991595
vn -0.129377 -0.000000 -0.991596
vn -0.000001 -1.000000 0.000000
vn -0.214906 0.000000 -0.976635
vn 0.000001 -1.000000 0.000008
vn 0.000001 -1.000000 -0.000008
vn -0.214905 0.000000 0.976635
vn -0.000001 -1.000000 0.000005
vn 0.000002 -1.000000 -0.000000
vn 0.214905 -0.000000 0.976635
vn -0.000000 -1.000000 0.000000
vn 0.214905 -0.000000 -0.976635
vn -0.000002 -1.000000 -0.000009
vn 0.000001 -1.000000 0.000009
vn 0.000001 -1.000000 -0.000009
vn -0.000002 -1.000000 0.000009
vn -0.000001 -1.000000 -0.000005
s off
f 6/1/1 7/2/1 3/3/1
f 4/4/2 3/5/2 11/6/2
f 5/7/3 1/8/3 8/9/3
f 1/10/4 2/11/4 3/3/4
f 8/9/5 7/12/5 6/13/5
f 2/11/6 1/10/6 9/14/6
f 9/14/7 6/1/7 2/11/7
f 9/15/8 5/7/8 6/13/8
f 9/15/9 1/8/9 5/7/9
f 8/16/2 4/4/2 12/17/2
f 4/4/2 10/18/2 13/19/2
f 7/20/2 8/16/2 12/17/2
f 7/20/2 15/21/2 14/22/2
f 14/22/2 11/6/2 7/20/2
f 12/23/10 13/24/10 19/25/10
f 11/26/11 14/27/11 20/28/11
f 21/29/12 20/30/12 14/31/12
f 16/32/13 19/33/13 13/34/13
f 18/35/14 21/36/14 15/37/14
f 17/38/15 16/39/15 10/40/15
f 19/41/16 16/42/16 26/43/16
f 22/44/17 25/45/17 24/46/17
f 21/47/18 18/17/18 30/48/18
f 24/49/13 27/50/13 26/51/13
f 20/52/19 32/53/19 17/54/19
f 26/55/20 27/56/20 28/57/20
f 19/41/21 26/43/21 18/17/21
f 21/47/22 30/48/22 20/52/22
f 28/58/23 29/59/23 30/60/23
f 25/61/24 23/62/24 27/63/24
f 32/64/25 23/65/25 22/44/25
f 30/66/12 33/67/12 32/50/12
f 17/54/26 22/68/26 24/69/26
f 2/11/1 6/1/1 3/3/1
f 10/18/2 4/4/2 11/6/2
f 8/9/3 1/8/3 4/70/3
f 4/71/4 1/10/4 3/3/4
f 5/7/5 8/9/5 6/13/5
f 4/4/2 13/19/2 12/17/2
f 15/21/2 7/20/2 12/17/2
f 11/6/2 3/5/2 7/20/2
f 18/35/10 12/23/10 19/25/10
f 17/38/11 11/26/11 20/28/11
f 15/72/12 21/29/12 14/31/12
f 10/73/13 16/32/13 13/34/13
f 12/23/14 18/35/14 15/37/14
f 11/26/15 17/38/15 10/40/15
f 16/42/16 24/69/16 26/43/16
f 23/65/17 25/45/17 22/44/17
f 18/17/27 28/74/27 30/48/27
f 25/75/13 27/50/13 24/49/13
f 32/53/28 22/68/28 17/54/28
f 27/56/20 29/76/20 28/57/20
f 26/43/29 28/74/29 18/17/29
f 30/48/22 32/53/22 20/52/22
f 30/60/23 29/59/23 31/77/23
f 27/63/24 23/62/24 29/78/24
f 29/78/24 33/79/24 31/80/24
f 23/62/24 33/79/24 29/78/24
f 33/81/25 23/65/25 32/64/25
f 31/82/12 33/67/12 30/66/12
f 16/42/30 17/54/30 24/69/30
