# Blender v2.81 (sub 16) OBJ File: 'grass.blend'
# www.blender.org
mtllib tris.mtl
o Cube
v 1.000000 -0.055493 -0.304988
v -1.000000 -0.055493 -0.304988
v 1.000000 1.855493 -0.895013
v -1.000000 1.855493 -0.895012
v 1.000000 1.855493 0.895012
v -1.000000 1.855493 0.895012
v 1.000000 -0.055493 0.304988
v -1.000000 -0.055493 0.304988
v -0.304988 -0.055493 -1.000000
v -0.304988 -0.055493 1.000000
v -0.795012 1.855493 -1.000000
v -0.795012 1.855493 1.000000
v 0.895012 1.855493 -1.000000
v 0.895012 1.855493 1.000000
v 0.304988 -0.055493 -1.000000
v 0.304988 -0.055493 1.000000
v 1.672579 -0.034341 1.510668
v 0.826613 -0.034341 2.335284
v 1.429307 1.094456 1.261098
v 0.583341 1.094456 2.085714
v 2.167349 1.094456 2.018248
v 1.321383 1.094456 2.842864
v 1.924077 -0.034341 1.768678
v 1.078111 -0.034341 2.593294
v 0.834032 -0.034341 1.754747
v 1.658649 -0.034341 2.600713
v 0.626760 1.094456 1.956788
v 1.451376 1.094456 2.802754
v 1.341612 1.094456 1.259977
v 2.166228 1.094456 2.105944
v 1.092042 -0.034341 1.503249
v 1.916658 -0.034341 2.349215
v -0.828833 -0.083108 -2.673545
v -2.282419 -0.083108 -2.196587
v -0.969542 1.378641 -3.102371
v -2.423128 1.378641 -2.625413
v -0.542659 1.378641 -1.801393
v -1.996245 1.378641 -1.324435
v -0.683367 -0.083108 -2.230219
v -2.136953 -0.083108 -1.753261
v -1.943035 -0.083108 -2.867463
v -1.466077 -0.083108 -1.413877
v -2.299181 1.378641 -2.750602
v -1.822224 1.378641 -1.297016
v -1.070883 1.378641 -3.153637
v -0.593926 1.378641 -1.700052
v -1.499709 -0.083108 -3.012929
v -1.022751 -0.083108 -1.559343
v -1.496112 -0.055133 -0.908962
v -2.259464 -0.055133 -0.563889
v -1.597913 0.745307 -1.134161
v -2.361265 0.745307 -0.789087
v -1.289068 0.745307 -0.450951
v -2.052420 0.745307 -0.105878
v -1.390869 -0.055133 -0.676149
v -2.154221 -0.055133 -0.331076
v -2.114110 -0.055133 -0.949073
v -1.769036 -0.055133 -0.185722
v -2.301140 0.745306 -0.864526
v -1.956067 0.745306 -0.101174
v -1.656099 0.745306 -1.156117
v -1.311025 0.745306 -0.392766
v -1.881297 -0.055133 -1.054316
v -1.536223 -0.055133 -0.290965
v 2.428153 -0.055133 -1.227798
v 1.778165 -0.055133 -1.756284
v 2.584062 0.745307 -1.419552
v 1.934075 0.745307 -1.948039
v 2.111060 0.745307 -0.837806
v 1.461073 0.745307 -1.366292
v 2.266970 -0.055133 -1.029560
v 1.616983 -0.055133 -1.558046
v 2.187692 -0.055133 -1.798507
v 1.659205 -0.055133 -1.148520
v 2.028437 0.745306 -1.927993
v 1.499951 0.745306 -1.278005
v 2.577684 0.745306 -1.481415
v 2.049198 0.745306 -0.831428
v 2.385930 -0.055133 -1.637325
v 1.857444 -0.055133 -0.987338
v -1.384309 -0.237639 2.104712
v -2.031651 -0.237639 1.070928
v -1.079330 0.927812 1.913737
v -1.726672 0.927812 0.879954
v -1.952890 0.927812 2.460750
v -2.600232 0.927812 1.426966
v -1.699600 -0.237639 2.302143
v -2.346943 -0.237639 1.268360
v -2.283802 -0.237639 2.167852
v -1.250018 -0.237639 1.520510
v -2.092828 0.927813 2.472831
v -1.059044 0.927813 1.825489
v -2.672207 0.927813 1.547582
v -1.638424 0.927813 0.900240
v -2.481233 -0.237639 1.852561
v -1.447449 -0.237639 1.205218
vt 0.241182 0.026937
vt 0.749517 0.026937
vt 0.749517 0.836645
vt 0.241182 0.836645
vt 0.241182 0.026937
vt 0.749517 0.026937
vt 0.749517 0.836645
vt 0.241182 0.836645
vt 0.241182 0.026937
vt 0.749517 0.026937
vt 0.749517 0.836645
vt 0.241182 0.836645
vt 0.241182 0.026937
vt 0.749517 0.026937
vt 0.749517 0.836645
vt 0.241182 0.836645
vt 0.241182 0.026937
vt 0.749517 0.026937
vt 0.749517 0.836645
vt 0.241182 0.836645
vt 0.241182 0.026937
vt 0.749517 0.026937
vt 0.749517 0.836645
vt 0.241182 0.836645
vt 0.241182 0.026937
vt 0.749517 0.026937
vt 0.749517 0.836645
vt 0.241182 0.836645
vt 0.241182 0.026937
vt 0.749517 0.026937
vt 0.749517 0.836645
vt 0.241182 0.836645
vt 0.241182 0.026937
vt 0.749517 0.026937
vt 0.749517 0.836645
vt 0.241182 0.836645
vt 0.241182 0.026937
vt 0.749517 0.026937
vt 0.749517 0.836645
vt 0.241182 0.836645
vt 0.241182 0.026937
vt 0.749517 0.026937
vt 0.749517 0.836645
vt 0.241182 0.836645
vt 0.241182 0.026937
vt 0.749517 0.026937
vt 0.749517 0.836645
vt 0.241182 0.836645
vt 0.241182 0.026937
vt 0.749517 0.026937
vt 0.749517 0.836645
vt 0.241182 0.836645
vt 0.241182 0.026937
vt 0.749517 0.026937
vt 0.749517 0.836645
vt 0.241182 0.836645
vt 0.241182 0.026937
vt 0.749517 0.026937
vt 0.749517 0.836645
vt 0.241182 0.836645
vt 0.241182 0.026937
vt 0.749517 0.026937
vt 0.749517 0.836645
vt 0.241182 0.836645
vt 0.241182 0.026937
vt 0.749517 0.026937
vt 0.749517 0.836645
vt 0.241182 0.836645
vt 0.241182 0.026937
vt 0.749517 0.026937
vt 0.749517 0.836645
vt 0.241182 0.836645
vt 0.241182 0.026937
vt 0.749517 0.026937
vt 0.749517 0.836645
vt 0.241182 0.836645
vt 0.241182 0.026937
vt 0.749517 0.026937
vt 0.749517 0.836645
vt 0.241182 0.836645
vt 0.241182 0.026937
vt 0.749517 0.026937
vt 0.749517 0.836645
vt 0.241182 0.836645
vt 0.241182 0.026937
vt 0.749517 0.026937
vt 0.749517 0.836645
vt 0.241182 0.836645
vt 0.241182 0.026937
vt 0.749517 0.026937
vt 0.749517 0.836645
vt 0.241182 0.836645
vt 0.241182 0.026937
vt 0.749517 0.026937
vt 0.749517 0.836645
vt 0.241182 0.836645
vn -0.0000 -0.2950 -0.9555
vn 0.0000 -0.2950 0.9555
vn -0.9687 -0.2484 0.0000
vn 0.9555 -0.2950 0.0000
vn -0.6669 -0.2950 -0.6842
vn 0.6669 -0.2950 0.6842
vn -0.6936 -0.2484 0.6761
vn 0.6842 -0.2950 -0.6669
vn -0.2979 -0.2950 -0.9079
vn 0.2979 -0.2950 0.9079
vn -0.9204 -0.2484 0.3020
vn 0.9079 -0.2950 -0.2979
vn -0.3936 -0.2950 -0.8707
vn 0.3936 -0.2950 0.8707
vn -0.8827 -0.2484 0.3990
vn 0.8707 -0.2950 -0.3936
vn 0.6028 -0.2950 -0.7414
vn -0.6028 -0.2950 0.7414
vn -0.7516 -0.2484 -0.6111
vn 0.7414 -0.2950 0.6028
vn 0.8098 -0.2950 -0.5071
vn -0.8210 -0.2484 0.5141
vn 0.5071 -0.2950 0.8098
vn -0.5071 -0.2950 -0.8098
g Cube_Cube_Material
usemtl Material
s off
f 1/1/1 2/2/1 4/3/1 3/4/1
f 8/5/2 7/6/2 5/7/2 6/8/2
f 9/9/3 10/10/3 12/11/3 11/12/3
f 16/13/4 15/14/4 13/15/4 14/16/4
f 17/17/5 18/18/5 20/19/5 19/20/5
f 24/21/6 23/22/6 21/23/6 22/24/6
f 25/25/7 26/26/7 28/27/7 27/28/7
f 32/29/8 31/30/8 29/31/8 30/32/8
f 33/33/9 34/34/9 36/35/9 35/36/9
f 40/37/10 39/38/10 37/39/10 38/40/10
f 41/41/11 42/42/11 44/43/11 43/44/11
f 48/45/12 47/46/12 45/47/12 46/48/12
f 49/49/13 50/50/13 52/51/13 51/52/13
f 56/53/14 55/54/14 53/55/14 54/56/14
f 57/57/15 58/58/15 60/59/15 59/60/15
f 64/61/16 63/62/16 61/63/16 62/64/16
f 65/65/17 66/66/17 68/67/17 67/68/17
f 72/69/18 71/70/18 69/71/18 70/72/18
f 73/73/19 74/74/19 76/75/19 75/76/19
f 80/77/20 79/78/20 77/79/20 78/80/20
f 81/81/21 82/82/21 84/83/21 83/84/21
f 88/85/22 87/86/22 85/87/22 86/88/22
f 89/89/23 90/90/23 92/91/23 91/92/23
f 96/93/24 95/94/24 93/95/24 94/96/24
