# Blender v2.81 (sub 16) OBJ File: 'fan.blend'
# www.blender.org
mtllib tris.mtl
o Cube
v 0.018626 0.400235 -1.000000
v 0.018626 0.999765 -1.000000
v 0.884652 0.400235 -0.500000
v 0.884652 0.999765 -0.500000
v 0.884652 0.400235 0.500000
v 0.884652 0.999765 0.500000
v 0.018626 0.400235 1.000000
v 0.018626 0.999765 1.000000
v -0.847399 0.400235 0.500000
v -0.847399 0.999765 0.500000
v -0.847399 0.400235 -0.500000
v -0.847399 0.999765 -0.500000
v -0.847399 0.811114 -0.433397
v -0.847399 0.588885 -0.433397
v -0.847399 0.811114 0.433397
v -0.847399 0.588885 0.433397
v -7.465805 0.944171 -0.374913
v -7.465805 0.733668 -0.446145
v -7.465805 0.666332 0.446145
v -7.465805 0.455829 0.374913
v -5.811203 1.044324 -0.855720
v -5.811203 0.355676 0.855720
v -5.811203 0.570333 0.913237
v -5.811203 0.829667 -0.913237
v -2.502001 0.442134 1.391683
v -2.502001 0.957866 -1.391682
v -2.502001 1.172523 -1.334165
v -2.502001 0.227477 1.334166
v 2.399436 0.227477 1.499991
v 0.088594 1.172523 2.834156
v 0.038783 0.957866 2.862915
v 2.449248 0.442134 1.471232
v 2.107730 0.829667 5.489546
v 3.689503 0.570333 4.576309
v 3.639692 0.355676 4.605067
v 2.157542 1.044324 5.460787
v 4.050602 0.455829 6.278398
v 4.112291 0.666332 6.242781
v 3.339545 0.733668 6.688927
v 3.401233 0.944171 6.653310
v 0.792046 0.588885 0.517448
v 0.792046 0.811114 0.517448
v 0.041382 0.588885 0.950845
v 0.041382 0.811114 0.950845
v 0.088594 0.227477 -2.834156
v 2.399437 1.172523 -1.499991
v 2.449248 0.957866 -1.471232
v 0.038783 0.442134 -2.862914
v 3.689503 0.829667 -4.576309
v 2.107730 0.570333 -5.489546
v 2.157541 0.355676 -5.460787
v 3.639692 1.044324 -4.605067
v 3.401233 0.455829 -6.653310
v 3.339544 0.666332 -6.688927
v 4.112291 0.733668 -6.242782
v 4.050601 0.944171 -6.278398
v 0.041383 0.588885 -0.950844
v 0.041383 0.811114 -0.950844
v 0.792048 0.588885 -0.517448
v 0.792048 0.811114 -0.517448
vt 0.490157 0.215813
vt 0.490157 0.321559
vt 0.642908 0.321559
vt 0.642908 0.215813
vt 0.578348 0.215813
vt 0.578348 0.321559
vt 0.401966 0.321559
vt 0.401966 0.215813
vt 0.642908 0.215813
vt 0.642908 0.321559
vt 0.490157 0.321559
vt 0.490157 0.215813
vt 0.337406 0.321559
vt 0.337406 0.215813
vt 0.642908 0.356877
vt 0.490157 0.445068
vt 0.337406 0.356877
vt 0.337406 0.180496
vt 0.490157 0.092305
vt 0.642908 0.180495
vt 0.401966 0.215813
vt 0.401966 0.321559
vt 0.578348 0.321559
vt 0.578348 0.215813
vt 0.337406 0.215813
vt 0.337406 0.321559
vt 0.490157 0.445068
vt 0.642908 0.356877
vt 0.642908 0.180495
vt 0.490157 0.092305
vt 0.337406 0.180496
vt 0.337406 0.356877
vt 0.451180 0.716967
vt 0.543898 0.716967
vt 0.543898 0.740738
vt 0.451180 0.740738
vt 0.451180 0.716967
vt 0.451180 0.740738
vt 0.543898 0.740738
vt 0.543898 0.716967
vt 0.320551 0.630905
vt 0.320551 0.826800
vt 0.143563 0.775212
vt 0.143563 0.682494
vt 0.320551 0.826800
vt 0.320551 0.630905
vt 0.143563 0.682494
vt 0.143563 0.775212
vt 0.320551 0.740738
vt 0.320551 0.716967
vt 0.143563 0.716967
vt 0.143563 0.740738
vt 0.320551 0.716967
vt 0.320551 0.740738
vt 0.143563 0.740738
vt 0.143563 0.716967
vt 0.674527 0.740738
vt 0.674527 0.716967
vt 0.674527 0.879784
vt 0.674527 0.577922
vt 0.674527 0.577922
vt 0.674527 0.879784
vt 0.851515 0.682494
vt 0.851515 0.775212
vt 0.851515 0.775212
vt 0.851515 0.682494
vt 0.851515 0.740738
vt 0.851515 0.716967
vt 0.851515 0.716967
vt 0.851515 0.740738
vt 0.674527 0.740738
vt 0.674527 0.716967
vt 0.674527 0.716967
vt 0.674527 0.740738
vt 0.320551 0.740738
vt 0.320551 0.716967
vt 0.851515 0.716967
vt 0.851515 0.740738
vt 0.851515 0.740738
vt 0.851515 0.716967
vt 0.674527 0.716967
vt 0.674527 0.740738
vt 0.851515 0.775212
vt 0.851515 0.682494
vt 0.674527 0.577922
vt 0.674527 0.879784
vt 0.851515 0.682494
vt 0.851515 0.775212
vt 0.674527 0.879784
vt 0.674527 0.577922
vt 0.320551 0.826800
vt 0.320551 0.630905
vt 0.320551 0.630905
vt 0.320551 0.826800
vt 0.320551 0.716967
vt 0.320551 0.740738
vt 0.143563 0.740738
vt 0.143563 0.716967
vt 0.143563 0.716967
vt 0.143563 0.740738
vt 0.143563 0.682494
vt 0.143563 0.775212
vt 0.143563 0.775212
vt 0.143563 0.682494
vt 0.451180 0.716967
vt 0.451180 0.740738
vt 0.543898 0.740738
vt 0.543898 0.716967
vt 0.451180 0.716967
vt 0.543898 0.716967
vt 0.543898 0.740738
vt 0.451180 0.740738
vt 0.674527 0.716967
vt 0.674527 0.740738
vt 0.320551 0.740738
vt 0.320551 0.716967
vt 0.851515 0.716967
vt 0.851515 0.740738
vt 0.851515 0.740738
vt 0.851515 0.716967
vt 0.674527 0.716967
vt 0.674527 0.740738
vt 0.851515 0.775212
vt 0.851515 0.682494
vt 0.674527 0.577922
vt 0.674527 0.879784
vt 0.851515 0.682494
vt 0.851515 0.775212
vt 0.674527 0.879784
vt 0.674527 0.577922
vt 0.320551 0.826800
vt 0.320551 0.630905
vt 0.320551 0.630905
vt 0.320551 0.826800
vt 0.320551 0.716967
vt 0.320551 0.740738
vt 0.143563 0.740738
vt 0.143563 0.716967
vt 0.143563 0.716967
vt 0.143563 0.740738
vt 0.143563 0.682494
vt 0.143563 0.775212
vt 0.143563 0.775212
vt 0.143563 0.682494
vt 0.451180 0.716967
vt 0.451180 0.740738
vt 0.543898 0.740738
vt 0.543898 0.716967
vt 0.451180 0.716967
vt 0.543898 0.716967
vt 0.543898 0.740738
vt 0.451180 0.740738
vn 0.5000 0.0000 -0.8660
vn 1.0000 0.0000 0.0000
vn 0.5000 0.0000 0.8660
vn -0.5000 0.0000 0.8660
vn 0.0000 1.0000 0.0000
vn -1.0000 0.0000 0.0000
vn -0.5000 0.0000 -0.8660
vn 0.0000 -1.0000 0.0000
vn -0.0000 0.9604 0.2788
vn -0.0000 -0.9604 -0.2788
vn -0.2797 0.2783 -0.9189
vn -0.2797 -0.2783 0.9189
vn -0.1480 0.2560 -0.9553
vn 0.0000 -0.9659 -0.2588
vn -0.0000 0.9659 0.2588
vn 0.0012 0.9800 0.1992
vn 0.0012 -0.9800 -0.1992
vn 0.5054 0.1126 -0.8555
vn 0.5054 -0.1126 0.8555
vn -0.1480 -0.2560 0.9553
vn 0.9013 -0.2560 -0.3494
vn 0.4881 -0.1126 -0.8655
vn -0.9936 0.1126 -0.0100
vn -0.1731 -0.9800 0.0986
vn 0.1719 0.9800 -0.1007
vn 0.2241 0.9659 -0.1294
vn -0.2241 -0.9659 0.1294
vn -0.7533 0.2560 0.6058
vn 0.9356 -0.2783 -0.2172
vn -0.6559 0.2783 0.7017
vn -0.2414 -0.9604 0.1394
vn 0.2414 0.9604 -0.1393
vn -0.7533 -0.2560 -0.6058
vn -0.9936 -0.1126 0.0100
vn 0.4881 0.1126 0.8655
vn 0.1719 -0.9800 0.1007
vn -0.1731 0.9800 -0.0986
vn -0.2241 0.9659 -0.1294
vn 0.2241 -0.9659 0.1294
vn 0.9013 0.2560 0.3494
vn -0.6559 -0.2783 -0.7017
vn 0.9356 0.2783 0.2172
vn 0.2414 -0.9604 0.1393
vn -0.2414 0.9604 -0.1394
usemtl Material
s off
f 1/1/1 2/2/1 4/3/1 3/4/1
f 3/5/2 4/6/2 6/7/2 5/8/2
f 5/9/3 6/10/3 8/11/3 7/12/3
f 7/12/4 8/11/4 10/13/4 9/14/4
f 4/15/5 2/16/5 12/17/5 10/18/5 8/19/5 6/20/5
f 9/21/6 10/22/6 12/23/6 11/24/6
f 11/25/7 12/26/7 2/2/7 1/1/7
f 1/27/8 3/28/8 5/29/8 7/30/8 9/31/8 11/32/8
f 16/33/2 14/34/2 13/35/2 15/36/2
f 20/37/6 19/38/6 17/39/6 18/40/6
f 23/41/9 21/42/9 17/43/9 19/44/9
f 24/45/10 22/46/10 20/47/10 18/48/10
f 21/49/11 24/50/11 18/51/11 17/52/11
f 22/53/12 23/54/12 19/55/12 20/56/12
f 27/57/13 26/58/13 24/50/13 21/49/13
f 26/59/14 28/60/14 22/46/14 24/45/14
f 25/61/15 27/62/15 21/42/15 23/41/15
f 15/63/16 13/64/16 27/62/16 25/61/16
f 14/65/17 16/66/17 28/60/17 26/59/17
f 13/67/18 14/68/18 26/58/18 27/57/18
f 16/69/19 15/70/19 25/71/19 28/72/19
f 28/72/20 25/71/20 23/54/20 22/53/20
f 29/73/21 32/74/21 34/75/21 35/76/21
f 41/77/22 42/78/22 32/74/22 29/73/22
f 44/79/23 43/80/23 31/81/23 30/82/23
f 43/83/24 41/84/24 29/85/24 31/86/24
f 42/87/25 44/88/25 30/89/25 32/90/25
f 32/90/26 30/89/26 36/91/26 34/92/26
f 31/86/27 29/85/27 35/93/27 33/94/27
f 30/82/28 31/81/28 33/95/28 36/96/28
f 35/76/29 34/75/29 38/97/29 37/98/29
f 36/96/30 33/95/30 39/99/30 40/100/30
f 33/94/31 35/93/31 37/101/31 39/102/31
f 34/92/32 36/91/32 40/103/32 38/104/32
f 37/105/3 38/106/3 40/107/3 39/108/3
f 41/109/7 43/110/7 44/111/7 42/112/7
f 45/113/33 48/114/33 50/115/33 51/116/33
f 57/117/34 58/118/34 48/114/34 45/113/34
f 60/119/35 59/120/35 47/121/35 46/122/35
f 59/123/36 57/124/36 45/125/36 47/126/36
f 58/127/37 60/128/37 46/129/37 48/130/37
f 48/130/38 46/129/38 52/131/38 50/132/38
f 47/126/39 45/125/39 51/133/39 49/134/39
f 46/122/40 47/121/40 49/135/40 52/136/40
f 51/116/41 50/115/41 54/137/41 53/138/41
f 52/136/42 49/135/42 55/139/42 56/140/42
f 49/134/43 51/133/43 53/141/43 55/142/43
f 50/132/44 52/131/44 56/143/44 54/144/44
f 53/145/1 54/146/1 56/147/1 55/148/1
f 57/149/4 59/150/4 60/151/4 58/152/4
