# Blender v2.81 (sub 16) OBJ File: 'crystal.blend'
# www.blender.org
mtllib tris.mtl
o Cube
v 1.698315 -0.363599 -1.033113
v 1.902082 -0.363386 1.744298
v 1.060133 -0.345208 2.309107
v -2.184129 -0.378716 -1.526690
v 0.222157 -0.376013 -2.362368
v 1.484950 0.846742 -0.914766
v -0.556626 0.542714 2.074103
v -2.035215 -0.322753 1.168864
v -2.156714 0.677387 -0.727506
v 0.237059 1.387921 -0.960959
v 1.269424 1.115175 1.200699
v -1.406791 1.155401 0.467947
v -1.120300 0.593069 -0.110998
v -0.862582 2.594974 -0.028320
v 0.745454 0.383675 -0.856648
v 1.003172 2.385579 -0.773970
v -0.389942 0.421582 1.764647
v -0.132224 2.423487 1.847326
v 1.475812 0.212187 1.018997
v 1.733529 2.214092 1.101676
v -0.113229 0.939738 -0.612719
v -0.116150 1.563075 -0.974371
v -0.117810 0.578074 -1.236040
v -0.120730 1.201411 -1.597691
v 0.607409 0.939965 -0.618147
v 0.604489 1.563302 -0.979798
v 0.602829 0.578302 -1.241467
v 0.599909 1.201639 -1.603119
v -1.899653 1.289116 -1.265220
v -1.229081 0.307021 -1.065585
v -0.984249 1.987120 -0.906254
v -0.313677 1.005025 -0.706619
v -2.307574 1.241045 -0.131499
v -1.637002 0.258950 0.068135
v -1.392169 1.939049 0.227466
v -0.721598 0.956954 0.427101
vt 0.072889 0.484350
vt 0.104367 0.655690
vt 0.062591 0.655690
vt 0.468252 0.063496
vt 0.468252 0.376444
vt 0.394166 0.413116
vt 0.062591 0.484350
vt 0.062591 0.871854
vt 0.031748 0.679993
vt 0.457342 0.529519
vt 0.376056 0.113047
vt 0.031748 0.193083
vt 0.047332 0.087594
vt 0.056783 0.303577
vt 0.239059 0.298819
vt 0.293493 0.063496
vt 0.376056 0.066311
vt 0.319419 0.471664
vt 0.376056 0.369370
vt 0.105617 0.126145
vt 0.356566 0.936504
vt 0.288224 0.864703
vt 0.313818 0.603136
vt 0.356566 0.471664
vt 0.276541 0.512125
vt 0.239059 0.063496
vt 0.237572 0.191892
vt 0.149410 0.418155
vt 0.239059 0.701892
vt 0.239059 0.484350
vt 0.620801 0.249415
vt 0.620801 0.758398
vt 0.875292 0.758398
vt 0.875292 0.249415
vt 0.620801 0.249415
vt 0.620801 0.758398
vt 0.875292 0.758398
vt 0.875292 0.249415
vt 0.620801 0.758398
vt 0.620801 0.249415
vt 0.875292 0.249415
vt 0.875292 0.758398
vt 0.620801 0.249415
vt 0.875292 0.249415
vt 0.620801 0.249415
vt 0.620801 0.758398
vt 0.875292 0.758398
vt 0.875292 0.249415
vt 0.620801 0.249415
vt 0.620801 0.758398
vt 0.875292 0.758398
vt 0.875292 0.249415
vt 0.620801 0.758398
vt 0.620801 0.249415
vt 0.875292 0.249415
vt 0.875292 0.758398
vt 0.620801 0.249415
vt 0.875292 0.249415
vt 0.875292 0.758398
vt 0.620801 0.758398
vt 0.620801 0.249415
vt 0.875292 0.249415
vt 0.875292 0.249415
vt 0.875292 0.758398
vt 0.620801 0.758398
vt 0.620801 0.249415
vt 0.875292 0.249415
vt 0.620801 0.758398
vt 0.620801 0.249415
vt 0.620801 0.249415
vt 0.875292 0.758398
vt 0.875292 0.249415
vn -0.0205 -0.9998 0.0016
vn 0.9810 0.1800 -0.0720
vn 0.0032 -1.0000 0.0058
vn 0.6565 0.1872 -0.7308
vn 0.9130 0.4059 0.0415
vn 0.3571 0.7844 0.5071
vn -0.2664 0.5860 -0.7653
vn 0.2857 0.5946 -0.7515
vn 0.2748 0.4332 0.8584
vn -0.3248 -0.3599 0.8746
vn -0.9983 -0.0161 0.0555
vn -0.2528 0.6032 -0.7565
vn 0.3991 0.9138 -0.0753
vn -0.0954 0.9122 0.3985
vn -0.6463 0.5335 0.5456
vn -0.8120 0.4932 0.3121
vn -0.2963 0.9363 -0.1885
vn -0.0222 0.9905 0.1356
vn -0.3615 0.0849 -0.9285
vn 0.9236 -0.1037 -0.3691
vn 0.3615 -0.0849 0.9285
vn -0.9236 0.1037 0.3691
vn 0.1276 0.9910 0.0409
vn -1.0000 -0.0003 0.0075
vn -0.0064 -0.5019 -0.8649
vn 1.0000 0.0003 -0.0075
vn 0.0064 0.5019 0.8649
vn -0.0041 0.8650 -0.5018
vn -0.5561 0.8145 -0.1656
vn 0.7591 0.5789 0.2977
vn 0.3383 0.0399 -0.9402
vn -0.7591 -0.5789 -0.2977
vn -0.3383 -0.0399 0.9402
g Cube_Cube_Material
usemtl Material
s off
f 1/1/1 2/2/1 3/3/1
f 2/4/2 1/5/2 6/6/2
f 1/7/3 4/8/3 5/9/3
f 1/5/4 5/10/4 6/6/4
f 2/4/5 6/6/5 11/11/5
f 3/12/6 2/13/6 7/14/6
f 5/15/7 4/16/7 9/17/7
f 6/18/8 5/15/8 10/19/8
f 2/13/9 11/20/9 7/14/9
f 3/21/10 7/22/10 8/23/10
f 4/24/11 8/23/11 9/25/11
f 5/15/12 9/17/12 10/19/12
f 6/26/13 10/27/13 11/20/13
f 7/14/14 11/20/14 12/28/14
f 8/23/15 7/22/15 12/29/15
f 9/25/16 8/23/16 12/29/16
f 10/27/17 9/30/17 12/28/17
f 11/20/18 10/27/18 12/28/18
f 13/31/19 14/32/19 16/33/19 15/34/19
f 15/35/20 16/36/20 20/37/20 19/38/20
f 19/38/21 20/37/21 18/39/21 17/40/21
f 17/41/22 18/42/22 14/32/22 13/31/22
f 20/37/23 16/36/23 14/43/23 18/44/23
f 21/45/24 22/46/24 24/47/24 23/48/24
f 23/49/25 24/50/25 28/51/25 27/52/25
f 27/52/26 28/51/26 26/53/26 25/54/26
f 25/55/27 26/56/27 22/46/27 21/45/27
f 28/51/28 24/50/28 22/57/28 26/58/28
f 29/59/29 33/60/29 35/61/29 31/62/29
f 32/63/30 31/64/30 35/65/30 36/66/30
f 30/67/31 29/59/31 31/68/31 32/69/31
f 34/70/32 33/60/32 29/59/32 30/67/32
f 36/66/33 35/65/33 33/71/33 34/72/33
