# Blender v2.81 (sub 16) OBJ File: 'palmtree2.blend'
# www.blender.org
mtllib tris.mtl
o Cube
v 1.159975 10.950768 -1.587414
v -1.159975 10.950768 -1.587414
v -0.000000 8.761507 0.036411
v 1.504258 10.846857 -3.584111
v -1.504258 10.846857 -3.584111
v 1.338671 10.450233 -5.558778
v -1.338671 10.450233 -5.558778
v -0.000000 8.487408 -7.044022
v -0.000000 10.416233 -1.687798
v -0.000000 10.913347 -3.684495
v -0.000000 9.957199 -5.659163
v 1.905855 10.950768 0.619324
v 1.149485 10.950768 -1.573864
v -0.007429 8.761507 0.052143
v 3.905699 10.846857 0.293815
v 2.924837 10.846857 -2.550316
v 5.718484 10.450233 -0.506522
v 4.845594 10.450233 -3.037574
v 6.686129 8.487408 -2.256280
v 1.622569 10.416233 -0.509998
v 3.510167 10.913347 -1.160979
v 5.376938 10.013435 -1.804776
v -1.161673 10.950768 -1.579866
v -1.910068 10.950768 0.616056
v 0.001143 8.761507 0.041926
v -2.940561 10.846857 -2.549860
v -3.911081 10.846857 0.297817
v -4.863076 10.450233 -3.030135
v -5.726763 10.450233 -0.495928
v -6.700759 8.487408 -2.242158
v -1.630887 10.416233 -0.514288
v -3.520838 10.913347 -1.158405
v -5.389937 10.178484 -1.795415
v 0.010406 10.950768 2.031883
v 1.884943 10.950768 0.665033
v -0.009038 8.761507 0.036395
v 0.908620 10.846857 3.848072
v 3.339525 10.846857 2.075538
v 2.205834 10.450233 5.346057
v 4.369147 10.450233 3.768643
v 4.162556 8.487408 5.757439
v 1.006818 10.416233 1.429569
v 2.183216 10.913347 3.042916
v 3.346634 9.588938 4.638461
v -1.908598 10.950768 0.607016
v -0.071361 10.950768 2.023607
v 0.001548 8.761507 0.029356
v -3.400455 10.846857 1.978037
v -1.017921 11.447882 3.815075
v -4.475076 10.450233 3.642944
v -2.354811 10.450233 5.277763
v -4.321851 8.487408 5.636562
v -1.051275 10.416233 1.394809
v -2.270483 10.913347 2.976053
v -3.476240 9.873318 4.539851
v 0.000002 5.874434 -0.387060
v 0.368118 5.874434 -0.119608
v 0.000000 2.369602 -0.701747
v 0.667401 2.369602 -0.216852
v 0.412477 2.369602 0.567725
v -0.412476 2.369602 0.567725
v -0.667400 2.369602 -0.216852
v 0.227510 5.874434 0.313138
v -0.227506 5.874434 0.313138
v -0.368113 5.874434 -0.119608
v 0.000002 7.740196 -0.263555
v -0.250654 7.740192 -0.081443
v -0.154912 7.740192 0.213221
v 0.154916 7.740196 0.213221
v 0.250658 7.740196 -0.081443
v 0.000000 8.984447 -0.868276
v -0.825779 8.984447 -0.268312
v -0.510360 8.984447 0.702450
v 0.510346 8.983425 0.702430
v 0.825779 8.984447 -0.268312
v 0.000000 9.824604 -0.000000
v 1.241454 11.384758 -0.492516
v -0.104867 11.384758 -1.332731
v -0.019807 8.697090 0.029720
v 2.164393 11.995045 -1.526557
v 0.418481 11.995045 -2.616150
v 2.783463 12.063850 -2.732472
v 1.229740 12.063850 -3.702125
v 2.544512 11.665718 -4.079220
v 0.604649 10.728531 -0.970878
v 1.327793 11.338818 -2.129609
v 2.042958 11.407627 -3.275554
v 0.875092 11.384758 1.058241
v 1.230459 11.384758 -0.488452
v -0.029816 8.697090 0.036159
v 2.153537 11.995045 1.593624
v 2.614379 11.995045 -0.412131
v 3.495397 12.063850 1.785705
v 3.905509 12.063850 0.000742
v 4.690653 11.665718 1.120732
v 1.119701 10.728531 0.300272
v 2.450883 11.338818 0.606123
v 3.767378 11.407627 0.908601
v -0.108586 11.384758 -1.328966
v -1.338193 11.384758 -0.325667
v -0.021141 8.697090 0.033335
v -0.789614 11.995045 -2.536135
v -2.384172 11.995045 -1.235055
v -1.731353 12.063850 -3.511127
v -3.150384 12.063850 -2.353270
v -3.083185 11.665718 -3.719399
v -0.766802 10.728531 -0.880521
v -1.630305 11.338818 -1.938801
v -2.484282 11.407627 -2.985404
v -0.736468 11.384758 1.191507
v 0.846402 11.384758 1.077194
v -0.025046 8.697090 0.026437
v -0.872981 11.995045 2.570790
v 1.179688 11.995045 2.422548
v -0.662703 12.063850 3.909918
v 1.164009 12.063850 3.777994
v 0.323838 11.665718 4.857318
v 0.059913 10.728531 1.202841
v 0.158299 11.338818 2.565160
v 0.255600 11.407627 3.912446
v -1.334067 11.384758 -0.330381
v -0.780921 11.384758 1.157091
v -0.016353 8.697090 0.026187
v -2.696368 11.995045 -0.075051
v -1.979048 11.995045 1.853907
v -3.922975 12.063850 0.501938
v -3.284617 12.063850 2.218557
v -4.556083 11.665718 1.714375
v -1.121857 10.728531 0.437290
v -2.402071 11.338818 0.913363
v -3.668160 11.407627 1.384182
v 0.000000 -0.573466 -1.007603
v 0.958288 -0.573466 -0.311366
v 0.592254 -0.573466 0.815168
v -0.592254 -0.573466 0.815168
v -0.958287 -0.573466 -0.311367
vt 0.749949 0.553282
vt 0.842420 0.628816
vt 0.750453 0.649975
vt 0.658487 0.628819
vt 0.848648 0.749285
vt 0.750971 0.749286
vt 0.827390 0.843614
vt 0.751463 0.843615
vt 0.675535 0.843616
vt 0.751815 0.911294
vt 0.653294 0.749288
vt 0.749949 0.553282
vt 0.842420 0.628816
vt 0.750453 0.649975
vt 0.658487 0.628819
vt 0.848648 0.749285
vt 0.750971 0.749286
vt 0.827390 0.843614
vt 0.751463 0.843615
vt 0.675535 0.843616
vt 0.751815 0.911294
vt 0.653294 0.749288
vt 0.749949 0.553282
vt 0.842420 0.628816
vt 0.750453 0.649975
vt 0.658487 0.628819
vt 0.848648 0.749285
vt 0.750971 0.749286
vt 0.827390 0.843614
vt 0.751463 0.843615
vt 0.675535 0.843616
vt 0.751815 0.911294
vt 0.653294 0.749288
vt 0.749949 0.553282
vt 0.842420 0.628816
vt 0.750453 0.649975
vt 0.658487 0.628819
vt 0.848648 0.749285
vt 0.750971 0.749286
vt 0.827390 0.843614
vt 0.751463 0.843615
vt 0.675535 0.843616
vt 0.751815 0.911294
vt 0.653294 0.749288
vt 0.749949 0.553282
vt 0.842420 0.628816
vt 0.750453 0.649975
vt 0.658487 0.628819
vt 0.848648 0.749285
vt 0.750971 0.749286
vt 0.827390 0.843614
vt 0.751463 0.843615
vt 0.675535 0.843616
vt 0.751815 0.911294
vt 0.653294 0.749288
vt 0.233400 0.439692
vt 0.276738 0.439692
vt 0.267021 0.693898
vt 0.243117 0.693898
vt 0.255069 0.245289
vt 0.255069 0.439692
vt 0.290131 0.439692
vt 0.305412 0.245289
vt 0.255069 0.693898
vt 0.274408 0.693898
vt 0.271427 0.245289
vt 0.266461 0.439692
vt 0.225244 0.439692
vt 0.212244 0.245289
vt 0.261353 0.693898
vt 0.238618 0.693898
vt 0.286183 0.245289
vt 0.223955 0.245289
vt 0.266461 0.439692
vt 0.225244 0.439692
vt 0.238618 0.693898
vt 0.261353 0.693898
vt 0.220007 0.439692
vt 0.235730 0.693898
vt 0.212244 0.245289
vt 0.271427 0.245289
vt 0.204726 0.245289
vt 0.263207 0.883780
vt 0.246931 0.883780
vt 0.243867 0.883780
vt 0.259348 0.883780
vt 0.269165 0.927357
vt 0.218167 0.927322
vt 0.243867 0.883780
vt 0.259348 0.883780
vt 0.255069 0.883780
vt 0.268237 0.883780
vt 0.241901 0.883780
vt 0.298451 0.621630
vt 0.255069 0.642642
vt 0.255069 0.612233
vt 0.218166 0.927357
vt 0.269165 0.927357
vt 0.255069 0.927357
vt 0.298451 0.927357
vt 0.281880 0.927322
vt 0.228257 0.927357
vt 0.211687 0.927357
vt 0.255069 0.956782
vt 0.211687 0.621630
vt 0.749949 0.553282
vt 0.842420 0.628816
vt 0.750453 0.649975
vt 0.658487 0.628819
vt 0.848648 0.749285
vt 0.750971 0.749286
vt 0.827390 0.843614
vt 0.751463 0.843615
vt 0.675535 0.843616
vt 0.751815 0.911294
vt 0.653294 0.749288
vt 0.749949 0.553282
vt 0.842420 0.628816
vt 0.750453 0.649975
vt 0.658487 0.628819
vt 0.848648 0.749285
vt 0.750971 0.749286
vt 0.827390 0.843614
vt 0.751463 0.843615
vt 0.675535 0.843616
vt 0.751815 0.911294
vt 0.653294 0.749288
vt 0.749949 0.553282
vt 0.842420 0.628816
vt 0.750453 0.649975
vt 0.658487 0.628819
vt 0.848648 0.749285
vt 0.750971 0.749286
vt 0.827390 0.843614
vt 0.751463 0.843615
vt 0.675535 0.843616
vt 0.751815 0.911294
vt 0.653294 0.749288
vt 0.749949 0.553282
vt 0.842420 0.628816
vt 0.750453 0.649975
vt 0.658487 0.628819
vt 0.848648 0.749285
vt 0.750971 0.749286
vt 0.827390 0.843614
vt 0.751463 0.843615
vt 0.675535 0.843616
vt 0.751815 0.911294
vt 0.653294 0.749288
vt 0.749949 0.553282
vt 0.842420 0.628816
vt 0.750453 0.649975
vt 0.658487 0.628819
vt 0.848648 0.749285
vt 0.750971 0.749286
vt 0.827390 0.843614
vt 0.751463 0.843615
vt 0.675535 0.843616
vt 0.751815 0.911294
vt 0.653294 0.749288
vn 0.0000 0.7215 0.6924
vn -0.1215 0.9406 0.3170
vn 0.0000 0.9317 0.3632
vn 0.1215 0.9406 0.3170
vn -0.1520 0.9813 -0.1183
vn 0.0000 0.9915 -0.1296
vn -0.0856 0.8881 -0.4515
vn 0.0000 0.8488 -0.5286
vn 0.0856 0.8881 -0.4515
vn 0.0000 0.6858 -0.7278
vn 0.1520 0.9813 -0.1183
vn -0.6546 0.7215 0.2257
vn -0.3392 0.9406 -0.0115
vn -0.3434 0.9317 0.1184
vn -0.2600 0.9406 0.2182
vn 0.0598 0.9832 -0.1722
vn 0.1169 0.9923 -0.0403
vn 0.4042 0.8887 -0.2163
vn 0.5030 0.8466 -0.1735
vn 0.4516 0.8887 -0.0788
vn 0.7001 0.6720 -0.2414
vn 0.1533 0.9832 0.0987
vn 0.6554 0.7215 0.2234
vn 0.2608 0.9406 0.2173
vn 0.3438 0.9317 0.1172
vn 0.3392 0.9406 -0.0128
vn -0.1284 0.9885 0.0799
vn -0.0999 0.9944 -0.0340
vn -0.4440 0.8887 -0.1144
vn -0.5128 0.8405 -0.1748
vn -0.4214 0.8887 -0.1805
vn -0.7323 0.6336 -0.2496
vn -0.0528 0.9885 -0.1417
vn -0.4079 0.7215 -0.5595
vn -0.0886 0.9406 -0.3277
vn -0.2140 0.9317 -0.2935
vn -0.2849 0.9406 -0.1845
vn 0.2564 0.9665 0.0009
vn 0.0980 0.9861 0.1343
vn 0.4003 0.8778 0.2630
vn 0.2956 0.8650 0.4054
vn 0.1280 0.8778 0.4615
vn 0.3667 0.7826 0.5030
vn -0.0775 0.9665 0.2445
vn 0.4228 0.7215 -0.5483
vn 0.2898 0.9406 -0.1768
vn 0.1953 0.9143 -0.3548
vn 0.0256 0.8863 -0.4623
vn 0.0534 0.9781 0.2008
vn -0.1726 0.9837 0.0490
vn -0.1919 0.8867 0.4206
vn -0.3713 0.8333 0.4096
vn -0.4911 0.8278 0.2711
vn -0.4319 0.7068 0.5602
vn -0.3525 0.9264 -0.1322
vn -0.5850 0.0967 0.8052
vn 0.5850 0.0966 0.8052
vn 0.5860 0.0781 0.8065
vn -0.5860 0.0781 0.8065
vn 0.0000 0.1034 -0.9946
vn 0.0000 0.0967 -0.9953
vn 0.9466 0.0966 -0.3076
vn 0.9460 0.1034 -0.3074
vn 0.0000 0.0781 -0.9969
vn 0.9481 0.0781 -0.3081
vn 0.5846 0.1034 0.8047
vn -0.5846 0.1034 0.8047
vn -0.9466 0.0967 -0.3076
vn -0.9481 0.0781 -0.3081
vn -0.9460 0.1034 -0.3074
vn 0.5743 -0.2130 0.7904
vn -0.5744 -0.2130 0.7904
vn 0.9292 -0.2130 -0.3020
vn 0.9410 0.1453 -0.3056
vn 0.5816 0.1445 0.8005
vn -0.9292 -0.2129 -0.3019
vn 0.0000 -0.2129 -0.9771
vn 0.0000 0.1451 -0.9894
vn 0.0001 1.0000 0.0002
vn -0.5815 0.1453 0.8005
vn -0.9410 0.1451 -0.3057
vn -0.4578 0.5021 0.7336
vn -0.6385 0.7488 0.1779
vn -0.3252 0.7891 0.5211
vn 0.1207 0.7488 0.6517
vn -0.5752 0.8029 -0.1564
vn -0.1194 0.9742 0.1913
vn -0.4119 0.9056 -0.1009
vn -0.0837 0.9874 0.1342
vn 0.2716 0.9056 0.3257
vn -0.1392 0.9648 0.2230
vn 0.3932 0.8029 0.4480
vn -0.8428 0.5021 -0.1936
vn -0.3764 0.7488 -0.5456
vn -0.5987 0.7891 -0.1375
vn -0.5768 0.7488 0.3266
vn -0.0397 0.8029 -0.5948
vn -0.2198 0.9742 -0.0505
vn -0.0389 0.9056 -0.4223
vn -0.1541 0.9874 -0.0354
vn -0.2193 0.9056 0.3630
vn -0.2562 0.9648 -0.0588
vn -0.2953 0.8029 0.5178
vn 0.5467 0.5021 0.6700
vn -0.0375 0.7488 0.6617
vn 0.3883 0.7891 0.4759
vn 0.6558 0.7488 0.0960
vn -0.3336 0.8029 0.4940
vn 0.1426 0.9742 0.1747
vn -0.2284 0.9056 0.3573
vn 0.1000 0.9874 0.1225
vn 0.3959 0.9056 -0.1520
vn 0.1662 0.9648 0.2037
vn 0.5509 0.8029 -0.2277
vn -0.0623 0.5021 -0.8625
vn 0.4111 0.7488 -0.5199
vn -0.0442 0.7891 -0.6127
vn -0.4815 0.7488 -0.4555
vn 0.5569 0.8029 -0.2125
vn -0.0162 0.9742 -0.2250
vn 0.3923 0.9056 -0.1611
vn -0.0114 0.9874 -0.1578
vn -0.4114 0.9056 -0.1031
vn -0.0189 0.9648 -0.2622
vn -0.5817 0.8029 -0.1303
vn 0.8106 0.5021 -0.3014
vn 0.6143 0.7488 0.2489
vn 0.5757 0.7891 -0.2141
vn 0.3023 0.7488 -0.5898
vn 0.3600 0.8029 0.4751
vn 0.2114 0.9742 -0.0786
vn 0.2646 0.9056 0.3314
vn 0.1482 0.9874 -0.0551
vn -0.0162 0.9056 -0.4237
vn 0.2463 0.9648 -0.0916
vn -0.0378 0.8029 -0.5949
g Cube_Cube_Material
usemtl Material
s 1
f 3/1/1 1/2/2 9/3/3 2/4/4
f 9/3/3 1/2/2 4/5/5 10/6/6
f 10/6/6 4/5/5 6/7/7 11/8/8
f 7/9/9 11/8/8 6/7/7 8/10/10
f 5/11/11 10/6/6 11/8/8 7/9/9
f 2/4/4 9/3/3 10/6/6 5/11/11
f 14/12/12 12/13/13 20/14/14 13/15/15
f 20/14/14 12/13/13 15/16/16 21/17/17
f 21/17/17 15/16/16 17/18/18 22/19/19
f 18/20/20 22/19/19 17/18/18 19/21/21
f 16/22/22 21/17/17 22/19/19 18/20/20
f 13/15/15 20/14/14 21/17/17 16/22/22
f 25/23/23 23/24/24 31/25/25 24/26/26
f 31/25/25 23/24/24 26/27/27 32/28/28
f 32/28/28 26/27/27 28/29/29 33/30/30
f 29/31/31 33/30/30 28/29/29 30/32/32
f 27/33/33 32/28/28 33/30/30 29/31/31
f 24/26/26 31/25/25 32/28/28 27/33/33
f 36/34/34 34/35/35 42/36/36 35/37/37
f 42/36/36 34/35/35 37/38/38 43/39/39
f 43/39/39 37/38/38 39/40/40 44/41/41
f 40/42/42 44/41/41 39/40/40 41/43/43
f 38/44/44 43/39/39 44/41/41 40/42/42
f 35/37/37 42/36/36 43/39/39 38/44/44
f 47/45/45 45/46/46 53/47/47 46/48/48
f 53/47/47 45/46/46 48/49/49 54/50/50
f 54/50/50 48/49/49 50/51/51 55/52/52
f 51/53/53 55/52/52 50/51/51 52/54/54
f 49/55/55 54/50/50 55/52/52 51/53/53
f 46/48/48 53/47/47 54/50/50 49/55/55
f 61/56/56 60/57/57 63/58/58 64/59/59
f 132/60/60 58/61/61 59/62/62 133/63/63
f 59/62/62 58/61/61 56/64/64 57/65/65
f 133/66/63 59/67/62 60/68/57 134/69/66
f 60/68/57 59/67/62 57/70/65 63/71/58
f 134/72/66 60/57/57 61/56/56 135/73/67
f 62/74/68 61/75/56 64/76/59 65/77/69
f 58/61/61 62/78/68 65/79/69 56/64/64
f 135/80/67 61/75/56 62/74/68 136/81/70
f 136/82/70 62/78/68 58/61/61 132/60/60
f 64/59/59 63/58/58 69/83/71 68/84/72
f 69/85/71 70/86/73 75/87/74 74/88/75
f 65/77/69 64/76/59 68/89/72 67/90/76
f 63/71/58 57/70/65 70/86/73 69/85/71
f 57/65/65 56/64/64 66/91/77 70/92/73
f 56/64/64 65/79/69 67/93/76 66/91/77
f 75/94/74 71/95/78 76/96/79
f 67/90/76 68/89/72 73/97/80 72/98/81
f 70/92/73 66/91/77 71/99/78 75/100/74
f 68/84/72 69/83/71 74/101/75 73/102/80
f 66/91/77 67/93/76 72/103/81 71/99/78
f 73/102/80 74/101/75 76/104/79
f 71/95/78 72/105/81 76/96/79
f 74/88/75 75/87/74 76/104/79
f 72/98/81 73/97/80 76/104/79
f 79/106/82 77/107/83 85/108/84 78/109/85
f 85/108/84 77/107/83 80/110/86 86/111/87
f 86/111/87 80/110/86 82/112/88 87/113/89
f 83/114/90 87/113/89 82/112/88 84/115/91
f 81/116/92 86/111/87 87/113/89 83/114/90
f 78/109/85 85/108/84 86/111/87 81/116/92
f 90/117/93 88/118/94 96/119/95 89/120/96
f 96/119/95 88/118/94 91/121/97 97/122/98
f 97/122/98 91/121/97 93/123/99 98/124/100
f 94/125/101 98/124/100 93/123/99 95/126/102
f 92/127/103 97/122/98 98/124/100 94/125/101
f 89/120/96 96/119/95 97/122/98 92/127/103
f 101/128/104 99/129/105 107/130/106 100/131/107
f 107/130/106 99/129/105 102/132/108 108/133/109
f 108/133/109 102/132/108 104/134/110 109/135/111
f 105/136/112 109/135/111 104/134/110 106/137/113
f 103/138/114 108/133/109 109/135/111 105/136/112
f 100/131/107 107/130/106 108/133/109 103/138/114
f 112/139/115 110/140/116 118/141/117 111/142/118
f 118/141/117 110/140/116 113/143/119 119/144/120
f 119/144/120 113/143/119 115/145/121 120/146/122
f 116/147/123 120/146/122 115/145/121 117/148/124
f 114/149/125 119/144/120 120/146/122 116/147/123
f 111/142/118 118/141/117 119/144/120 114/149/125
f 123/150/126 121/151/127 129/152/128 122/153/129
f 129/152/128 121/151/127 124/154/130 130/155/131
f 130/155/131 124/154/130 126/156/132 131/157/133
f 127/158/134 131/157/133 126/156/132 128/159/135
f 125/160/136 130/155/131 131/157/133 127/158/134
f 122/153/129 129/152/128 130/155/131 125/160/136
