# Blender 4.0.1
# www.blender.org
o tree_fir_2
v 3.006013 -0.000000 5.206566
v -3.006013 0.000000 -5.206566
v 3.006013 12.024050 5.206567
v -3.006013 12.024050 -5.206565
v 6.012025 0.000000 -0.000001
v -6.012025 -0.000000 0.000001
v 6.012025 12.024050 0.000000
v -6.012025 12.024050 0.000001
v 3.006012 0.000000 -5.206567
v -3.006012 -0.000000 5.206567
v 3.006012 12.024050 -5.206566
v -3.006012 12.024050 5.206568
vn 0.8660 -0.0000 -0.5000
vn -0.0000 -0.0000 -1.0000
vn -0.8660 -0.0000 -0.5000
vt 1.000000 0.000000
vt 0.000000 1.000000
vt 0.000000 0.000000
vt 1.000000 1.000000
s 1
f 2/1/1 3/2/1 1/3/1
f 6/1/2 7/2/2 5/3/2
f 10/1/3 11/2/3 9/3/3
f 2/1/1 4/4/1 3/2/1
f 6/1/2 8/4/2 7/2/2
f 10/1/3 12/4/3 11/2/3
