# Blender v2.81 (sub 16) OBJ File: 'tree2.blend'
# www.blender.org
mtllib tris.mtl
o Cube
v 0.000002 20.436932 -0.397783
v 0.378316 20.436932 -0.122922
v -0.000001 -1.706464 -1.664005
v -0.000001 8.815853 -0.902638
v 1.582561 -1.706464 -0.514206
v 0.858459 8.815853 -0.278930
v 0.978076 -1.706464 1.346208
v 0.530556 8.815853 0.730250
v -0.978079 -1.706464 1.346208
v -0.530559 8.815853 0.730249
v -1.582563 -1.706464 -0.514206
v -0.858461 8.815853 -0.278931
v 0.233813 20.436932 0.321813
v -0.233809 20.436932 0.321813
v -0.378312 20.436932 -0.122922
v 0.000007 26.871265 -0.131369
v -0.124933 26.871265 -0.040595
v -0.077210 26.871265 0.106280
v 0.077224 26.871265 0.106280
v 0.124946 26.871265 -0.040595
v 5.595738 16.782223 0.076886
v -4.944587 16.782227 0.076887
v 5.595740 34.105808 8.505764
v -4.944584 34.105808 8.505764
v 0.325575 19.088003 -4.662101
v 0.325576 14.476448 4.815875
v 0.325577 36.411587 3.766776
v 0.325578 31.800034 13.244751
v -4.147285 18.347523 4.377492
v 4.283804 17.121397 -4.219664
v -11.418713 36.818527 -5.387821
v -2.987623 35.592392 -13.984974
v 3.927908 21.008154 3.397112
v -3.791391 14.460766 -3.239287
v -3.343519 39.479149 -6.368196
v -11.062817 32.931763 -13.004595
v -6.399847 18.345688 3.149882
v 6.363886 18.283569 -3.238523
v -6.297948 44.433884 3.099781
v 6.465783 44.371761 -3.288626
v 3.176252 18.314411 6.337602
v -3.212212 18.314854 -6.426245
v 3.278147 44.402588 6.287498
v -3.110315 44.403038 -6.476347
v 3.751654 11.450192 -0.820620
v -3.642461 15.693285 0.567450
v 10.920226 25.079542 -4.296896
v 3.526110 29.322632 -2.908824
v -1.011740 13.072804 -4.281688
v 1.120933 14.070678 4.028515
v 6.156833 26.702152 -7.757963
v 8.289506 27.700026 0.552240
v -0.000001 2.189247 -1.283321
v 1.220510 2.189247 -0.396568
v 0.754316 2.189247 1.038229
v -0.754319 2.189247 1.038229
v -1.220512 2.189247 -0.396568
vt 0.165491 0.759170
vt 0.150813 0.756940
vt 0.147555 0.942768
vt 0.152416 0.944049
vt 0.156495 0.431068
vt 0.125080 0.428806
vt 0.136805 0.759002
vt 0.206313 0.245697
vt 0.189626 0.429650
vt 0.179499 0.426358
vt 0.192834 0.229062
vt 0.142717 0.762590
vt 0.144870 0.946111
vt 0.142899 0.944033
vt 0.138242 0.425815
vt 0.133520 0.227945
vt 0.160710 0.762693
vt 0.150780 0.946121
vt 0.115218 0.244027
vt 0.159461 0.254062
vt 0.899284 0.223928
vt 0.434049 0.223928
vt 0.434049 0.819041
vt 0.899284 0.819041
vt 0.899284 0.223928
vt 0.434049 0.223928
vt 0.434049 0.819041
vt 0.899284 0.819041
vt 0.899284 0.223928
vt 0.434049 0.223928
vt 0.434049 0.819041
vt 0.899284 0.819041
vt 0.899284 0.223928
vt 0.434049 0.223928
vt 0.434049 0.819041
vt 0.899284 0.819041
vt 0.899284 0.223928
vt 0.434049 0.223928
vt 0.434049 0.819041
vt 0.899284 0.819041
vt 0.899284 0.223928
vt 0.434049 0.223928
vt 0.434049 0.819041
vt 0.899284 0.819041
vt 0.899284 0.223928
vt 0.434049 0.223928
vt 0.434049 0.819041
vt 0.899284 0.819041
vt 0.899284 0.223928
vt 0.434049 0.223928
vt 0.434049 0.819041
vt 0.899284 0.819041
vt 0.162428 0.077056
vt 0.222999 0.061743
vt 0.105357 0.059249
vt 0.128798 0.030075
vt 0.206169 0.031765
vn 0.0000 0.0424 -0.9991
vn -0.9502 0.0424 -0.3087
vn -0.9502 0.0414 -0.3087
vn 0.0000 0.0414 -0.9991
vn -0.9498 0.0505 -0.3086
vn -0.5870 0.0505 0.8080
vn -0.5872 0.0424 0.8083
vn 0.0000 0.0779 -0.9969
vn 0.0000 0.0505 -0.9987
vn 0.9498 0.0505 -0.3086
vn 0.9481 0.0779 -0.3081
vn 0.5872 0.0424 0.8083
vn 0.5873 0.0414 0.8083
vn -0.5873 0.0414 0.8083
vn 0.5870 0.0505 0.8080
vn 0.5860 0.0779 0.8065
vn 0.9502 0.0424 -0.3087
vn 0.9502 0.0414 -0.3087
vn -0.5860 0.0779 0.8065
vn -0.9481 0.0779 -0.3081
vn 0.0000 0.4375 -0.8992
vn -1.0000 0.0000 0.0000
vn 0.6377 0.5409 0.5483
vn 0.6966 -0.1013 -0.7103
vn 0.4476 -0.0000 0.8942
vn 0.8942 -0.0043 -0.4476
vn -0.2469 -0.1155 -0.9621
vn -0.8560 0.4912 0.1607
vn -0.9465 0.0972 -0.3075
vn 0.0000 0.0972 -0.9952
vn -0.5850 0.0972 0.8052
vn 0.5850 0.0972 0.8052
vn 0.9465 0.0972 -0.3075
usemtl Material
s 1
f 1/1/1 15/2/2 17/3/3 16/4/4
f 12/5/5 10/6/6 14/7/7 15/2/2
f 53/8/8 4/9/9 6/10/10 54/11/11
f 14/7/7 13/12/12 19/13/13 18/14/14
f 10/6/6 8/15/15 13/12/12 14/7/7
f 54/11/11 6/10/10 8/15/15 55/16/16
f 13/12/12 2/17/17 20/18/18 19/13/13
f 6/10/10 4/9/9 1/1/1 2/17/17
f 55/16/16 8/15/15 10/6/6 56/19/19
f 4/9/9 12/5/5 15/2/2 1/1/1
f 8/15/15 6/10/10 2/17/17 13/12/12
f 56/19/19 10/6/6 12/5/5 57/20/20
f 2/17/17 1/1/1 16/4/4 20/18/18
f 57/20/20 12/5/5 4/9/9 53/8/8
f 15/2/2 14/7/7 18/14/14 17/3/3
f 21/21/21 22/22/21 24/23/21 23/24/21
f 25/25/22 26/26/22 28/27/22 27/28/22
f 29/29/23 30/30/23 32/31/23 31/32/23
f 33/33/24 34/34/24 36/35/24 35/36/24
f 37/37/25 38/38/25 40/39/25 39/40/25
f 41/41/26 42/42/26 44/43/26 43/44/26
f 45/45/27 46/46/27 48/47/27 47/48/27
f 49/49/28 50/50/28 52/51/28 51/52/28
f 11/53/29 57/20/20 53/8/8 3/54/30
f 9/55/31 56/19/19 57/20/20 11/53/29
f 7/56/32 55/16/16 56/19/19 9/55/31
f 5/57/33 54/11/11 55/16/16 7/56/32
f 3/54/30 53/8/8 54/11/11 5/57/33
