# Blender 4.0.1
# www.blender.org
o tree_beech_1
v 2.007789 -0.000000 3.528102
v -1.992671 0.000000 -3.400898
v 2.007789 8.000920 3.528102
v -1.992671 8.000920 -3.400898
v 4.083687 0.000000 -0.000000
v -3.917233 -0.000000 0.000000
v 4.000460 8.000920 0.000000
v -4.000460 8.000920 0.000001
v 2.000230 0.000000 -3.464500
v -2.000230 -0.000000 3.464500
v 2.000230 8.000920 -3.464500
v -2.000230 8.000920 3.464501
vn 0.8660 -0.0000 -0.5000
vn -0.0000 -0.0000 -1.0000
vn -0.8660 -0.0000 -0.5000
vt 1.000000 0.000000
vt 0.000000 1.000000
vt 0.000000 0.000000
vt 1.000000 1.000000
s 1
f 2/1/1 3/2/1 1/3/1
f 6/1/2 7/2/2 5/3/2
f 10/1/3 11/2/3 9/3/3
f 2/1/1 4/4/1 3/2/1
f 6/1/2 8/4/2 7/2/2
f 10/1/3 12/4/3 11/2/3
