# Blender 4.0.1
# www.blender.org
o tree_fir_1
v 0.000000 -0.000000 5.002865
v -0.000000 0.000000 -5.002865
v 0.000000 10.005732 5.002866
v -0.000000 10.005732 -5.002865
v 4.332609 0.000000 2.501432
v -4.332609 -0.000000 -2.501432
v 4.332608 10.005732 2.501433
v -4.332609 10.005732 -2.501432
v 4.332608 0.000000 -2.501433
v -4.332608 -0.000000 2.501433
v 4.332608 10.005732 -2.501433
v -4.332608 10.005732 2.501434
vn 1.0000 -0.0000 -0.0000
vn 0.5000 -0.0000 -0.8660
vn -0.5000 -0.0000 -0.8660
vt 1.000000 0.000000
vt 0.000000 1.000000
vt 0.000000 0.000000
vt 1.000000 1.000000
s 1
f 2/1/1 3/2/1 1/3/1
f 6/1/2 7/2/2 5/3/2
f 10/1/3 11/2/3 9/3/3
f 2/1/1 4/4/1 3/2/1
f 6/1/2 8/4/2 7/2/2
f 10/1/3 12/4/3 11/2/3
